<?xml version="1.0" encoding="UTF-8" standalone="no"?>
<svg width="20px" height="23px" viewBox="0 0 20 23" version="1.1" xmlns="http://www.w3.org/2000/svg" xmlns:xlink="http://www.w3.org/1999/xlink">
    <!-- Generator: Sketch 3.8.3 (29802) - http://www.bohemiancoding.com/sketch -->
    <title>citizenExpert</title>
    <desc>Created with Sketch.</desc>
    <defs>
        <polygon id="path-1" points="19.8775893 0.115714286 8.92857151e-05 0.115714286 8.92857151e-05 22.6760357 19.8775893 22.6760357"></polygon>
    </defs>
    <g id="Desktop" stroke="none" stroke-width="1" fill="none" fill-rule="evenodd">
        <g id="Single-Location---Conversations" transform="translate(-292.000000, -282.000000)">
            <g id="Group-4" transform="translate(199.000000, 280.000000)">
                <g id="citizenExpert" transform="translate(93.000000, 2.000000)">
                    <path d="M8.87376786,11.8065893 L6.74091071,9.67391071 L7.49269643,8.922125 L8.87376786,10.2978393 L12.3850179,6.78676786 L13.136625,7.54373214 L8.87376786,11.8065893 Z M9.93876786,3.25944643 C6.70376786,3.25944643 4.08233929,5.88105357 4.08233929,9.11605357 C4.08233929,12.3510536 6.70376786,14.9724821 9.93876786,14.9724821 C13.1739464,14.9724821 15.795375,12.3510536 15.795375,9.11605357 C15.795375,5.88105357 13.1739464,3.25944643 9.93876786,3.25944643 L9.93876786,3.25944643 Z M8.87376786,11.8065893 L6.74091071,9.67391071 L7.49269643,8.922125 L8.87376786,10.2978393 L12.3850179,6.78676786 L13.136625,7.54373214 L8.87376786,11.8065893 Z M9.93876786,3.25944643 C6.70376786,3.25944643 4.08233929,5.88105357 4.08233929,9.11605357 C4.08233929,12.3510536 6.70376786,14.9724821 9.93876786,14.9724821 C13.1739464,14.9724821 15.795375,12.3510536 15.795375,9.11605357 C15.795375,5.88105357 13.1739464,3.25944643 9.93876786,3.25944643 L9.93876786,3.25944643 Z M8.87376786,11.8065893 L6.74091071,9.67391071 L7.49269643,8.922125 L8.87376786,10.2978393 L12.3850179,6.78676786 L13.136625,7.54373214 L8.87376786,11.8065893 Z M9.93876786,3.25944643 C6.70376786,3.25944643 4.08233929,5.88105357 4.08233929,9.11605357 C4.08233929,12.3510536 6.70376786,14.9724821 9.93876786,14.9724821 C13.1739464,14.9724821 15.795375,12.3510536 15.795375,9.11605357 C15.795375,5.88105357 13.1739464,3.25944643 9.93876786,3.25944643 L9.93876786,3.25944643 Z M9.93358929,21.5806964 L9.944125,21.5806964 L9.944125,21.5728393 L9.93358929,21.5806964 Z" id="Fill-10" fill="#FFFFFF"></path>
                    <g id="Group-14" transform="translate(0.000000, 0.062857)">
                        <mask id="mask-2" fill="white">
                            <use xlink:href="#path-1"></use>
                        </mask>
                        <g id="Clip-13"></g>
                        <path d="M9.93883929,16.1421071 C6.02919643,16.1421071 2.84991071,12.9603214 2.84991071,9.05317857 C2.84991071,5.14353571 6.02919643,1.96692857 9.93883929,1.96692857 C13.8484821,1.96692857 17.0277679,5.14353571 17.0277679,9.05317857 C17.0277679,12.9603214 13.8484821,16.1421071 9.93883929,16.1421071 L9.93883929,16.1421071 Z M16.5204464,15.0903214 C17.9811607,13.4994286 18.8763393,11.3797857 18.8763393,9.05317857 C18.8763393,4.12371429 14.8684821,0.115678571 9.93883929,0.115678571 C5.011875,0.115678571 1.00133929,4.12371429 1.00133929,9.05317857 C1.00133929,11.3797857 1.89633929,13.4994286 3.35723214,15.0903214 L8.92857151e-05,20.3731786 L2.48598214,20.6335357 L3.54848214,22.6760357 L6.884375,17.4515714 C7.83794643,17.7994286 8.86580357,17.9906786 9.93883929,17.9906786 C11.011875,17.9906786 12.0424107,17.7994286 12.9959821,17.4515714 L16.3291964,22.6760357 L17.3916964,20.6335357 L19.8775893,20.3731786 L16.5204464,15.0903214 Z" id="Fill-12" fill="#FFFFFF" mask="url(#mask-2)"></path>
                    </g>
                </g>
            </g>
        </g>
    </g>
</svg>