<?xml version="1.0" encoding="UTF-8" standalone="no"?>
<svg width="19px" height="19px" viewBox="0 0 19 19" version="1.1" xmlns="http://www.w3.org/2000/svg" xmlns:xlink="http://www.w3.org/1999/xlink">
    <!-- Generator: Sketch 3.8.3 (29802) - http://www.bohemiancoding.com/sketch -->
    <title>digDeeper</title>
    <desc>Created with Sketch.</desc>
    <defs></defs>
    <g id="Desktop" stroke="none" stroke-width="1" fill="none" fill-rule="evenodd">
        <g id="Single-Location-On-Exploration" transform="translate(-731.000000, -399.000000)" stroke="#3EB9FD">
            <g id="Group" transform="translate(696.000000, 399.000000)">
                <g id="digDeeper" transform="translate(35.000000, 0.000000)">
                    <path d="M9.9866,8.396 L8.4126,9.981 L7.5786,9.893 C6.5236,9.694 5.1476,9.472 4.8986,9.606 C4.4866,9.831 2.1276,13.199 1.6736,14.13 C1.1216,15.019 0.2616,18.047 0.5616,18.344 C0.8636,18.642 3.8476,17.785 4.7676,17.201 C5.6946,16.742 9.0466,14.358 9.2676,13.943 C9.4006,13.693 9.1666,12.32 8.9616,11.266 L8.8666,10.433 L10.4416,8.847" id="Stroke-1"></path>
                    <polygon id="Stroke-3" points="16.9563 0.7071 10.4413 7.2221 11.6163 8.3961 18.1303 1.8811"></polygon>
                </g>
            </g>
        </g>
    </g>
</svg>