<?xml version="1.0" encoding="UTF-8" standalone="no"?>
<svg width="33px" height="51px" viewBox="0 0 33 51" version="1.1" xmlns="http://www.w3.org/2000/svg" xmlns:xlink="http://www.w3.org/1999/xlink">
    <!-- Generator: Sketch 39 (31667) - http://www.bohemiancoding.com/sketch -->
    <title>explorations</title>
    <desc>Created with Sketch.</desc>
    <defs></defs>
    <g id="Desktop" stroke="none" stroke-width="1" fill="none" fill-rule="evenodd">
        <g id="Explorations" transform="translate(-495.000000, -89.000000)" stroke="#FFFFFF">
            <g id="explorations" transform="translate(496.000000, 90.000000)">
                <ellipse id="Oval-10-Copy" cx="9.52631579" cy="33" rx="5.52631579" ry="5.52631579"></ellipse>
                <ellipse id="Oval-10" cx="25.5263158" cy="21.5263158" rx="5.52631579" ry="5.52631579"></ellipse>
                <path d="M14.5,29.4999999 L20.9999999,25" id="Line" stroke-linecap="square"></path>
                <g id="Group-9" transform="translate(14.000000, 34.000000)">
                    <path d="M11.5263158,15.0526316 C14.5784157,15.0526316 17.0526316,12.5784157 17.0526316,9.52631579 C17.0526316,6.47421586 14.5784157,4 11.5263158,4 C8.47421586,4 6,6.47421586 6,9.52631579 C6,12.5784157 8.47421586,15.0526316 11.5263158,15.0526316 Z" id="Oval-10-Copy-2"></path>
                    <path d="M0.263157904,4.26315784 L6.26315784,0.263157904" id="Line" stroke-linecap="square" transform="translate(4.000000, 3.000000) scale(1, -1) translate(-4.000000, -3.000000) "></path>
                </g>
                <g id="Group-9-Copy" transform="translate(10.500000, 9.500000) scale(-1, -1) translate(-10.500000, -9.500000) ">
                    <path d="M13,19 C17.418278,19 21,15.418278 21,11 C21,6.581722 17.418278,3 13,3 C8.581722,3 5,6.581722 5,11 C5,15.418278 8.581722,19 13,19 Z" id="Oval-10-Copy-2"></path>
                    <path d="M0.263157904,4.26315784 L6.26315784,0.263157904" id="Line" stroke-linecap="square" transform="translate(4.000000, 3.000000) scale(1, -1) translate(-4.000000, -3.000000) "></path>
                </g>
            </g>
        </g>
    </g>
</svg>