<?xml version="1.0" encoding="UTF-8" standalone="no"?>
<svg width="251px" height="61px" viewBox="0 0 251 61" version="1.1" xmlns="http://www.w3.org/2000/svg" xmlns:xlink="http://www.w3.org/1999/xlink" xmlns:sketch="http://www.bohemiancoding.com/sketch/ns">
    <!-- Generator: sketchtool 3.4.2 (385) - http://www.bohemiancoding.com/sketch -->
    <title>FooterLogo - NEH</title>
    <desc>Created with sketchtool.</desc>
    <defs></defs>
    <g id="Assets" stroke="none" stroke-width="1" fill="none" fill-rule="evenodd" sketch:type="MSPage">
        <g sketch:type="MSArtboardGroup" transform="translate(-371.000000, -4719.000000)" id="Footer" fill="#FFFFFF">
            <g sketch:type="MSLayerGroup" transform="translate(195.000000, 4616.000000)">
                <g id="FooterLogo---NEH" transform="translate(175.500000, 102.402344)" sketch:type="MSShapeGroup">
                    <g id="Group">
                        <g transform="translate(72.000000, 19.000000)" id="Shape">
                            <path d="M17.3,23.5 C16.7,23.5 14.5,23.6 14,23.6 L14,23 C14.9,22.8 15.5,21.9 15.5,21.2 L15.5,14.6 L5,14.6 L5,21.2 C5,21.9 5.6,22.7 6.5,23 L6.5,23.6 C6,23.6 3.8,23.5 3.2,23.5 C2.7,23.5 0.6,23.6 0.1,23.6 L0.1,23 C1,22.8 1.6,21.9 1.6,21.2 L1.6,7.4 C1.6,6.7 1.1,5.9 0.1,5.6 L0.1,5 C0.6,5 2.7,5.1 3.2,5.1 C3.8,5.1 6,5 6.5,5 L6.5,5.6 C5.6,5.8 5,6.7 5,7.4 L5,12.8 L15.5,12.8 L15.5,7.4 C15.5,6.7 15,5.9 14,5.6 L14,5 C14.5,5 16.6,5.1 17.3,5.1 C17.8,5.1 19.9,5 20.4,5 L20.4,5.6 C19.5,5.8 18.9,6.7 18.9,7.4 L18.9,21.2 C18.9,21.9 19.5,22.7 20.4,23 L20.4,23.6 C19.9,23.6 17.8,23.5 17.3,23.5"></path>
                            <path d="M39.9,23.1 C39.2,23.6 38.3,24.3 38.3,24.3 C37.7,23.7 36.5,22.5 36.3,20.9 C34.8,22.4 32.6,23.9 29.9,23.9 C26.1,23.9 24.5,21.5 24.5,18.5 L24.5,9.8 C24.5,8.4 23.7,7.7 22.3,7.4 L22.3,6.9 L27.4,4.9 L27.9,4.9 L27.9,16.1 C27.9,19.2 28.6,21.7 31.7,21.7 C33.7,21.7 35.4,20.4 36.3,19.3 L36.3,9.9 C36.3,8.5 35.5,7.8 34.1,7.5 L34.1,7 L39.2,5 L39.7,5 L39.7,19.8 C39.7,21.2 40.1,21.6 40.7,21.6 C41,21.6 41.5,21.6 41.7,21.4 L42,22.1 C41.8,22 40.9,22.5 39.9,23.1"></path>
                            <path d="M69.3,23.5 C68.7,23.5 66.3,23.6 65.7,23.6 L65.7,23.1 C66.6,22.7 67.6,22.2 67.6,21.4 L67.6,12.8 C67.6,9.7 67.4,7.2 64.3,7.2 C62.5,7.2 60.8,8.2 59.8,9.2 L59.8,10.3 L59.8,21.4 C59.8,22.3 60.7,22.7 61.8,23.1 L61.8,23.6 C61.2,23.6 58.7,23.5 58.1,23.5 C57.5,23.5 55.1,23.6 54.5,23.6 L54.5,23.1 C55.4,22.7 56.4,22.2 56.4,21.4 L56.4,12.8 C56.4,9.7 56.2,7.2 53.1,7.2 C51.1,7.2 49.6,8.5 48.7,9.6 L48.7,21.4 C48.7,22.3 49.6,22.7 50.7,23.1 L50.7,23.6 C50.1,23.6 47.6,23.5 47,23.5 C46.4,23.5 44,23.6 43.4,23.6 L43.4,23.1 C44.3,22.7 45.3,22.2 45.3,21.4 L45.3,9.8 C45.3,8.4 44.5,7.7 43,7.4 L43,6.9 L47.9,4.9 L48.4,4.9 L48.6,7.8 C50.2,6.3 52,4.9 54.7,4.9 C57.3,4.9 58.7,6.1 59.2,7.8 C60.8,6.3 63.1,4.9 65.8,4.9 C69.6,4.9 70.7,7.3 70.7,10.3 L70.7,21.4 C70.7,22.3 71.6,22.7 72.7,23.1 L72.7,23.6 C72.4,23.6 69.9,23.5 69.3,23.5"></path>
                            <path d="M89.6,23.1 C88.9,23.6 88,24.3 88,24.3 C87.4,23.7 86.6,22.8 86.2,21.5 C84.9,22.9 82.8,23.8 80.5,23.8 C77.1,23.8 74.8,22.2 74.8,18.6 C74.8,15.2 78,13.5 81.2,13 C82.1,12.9 84.9,12.8 85.9,12.8 L85.9,9.9 C85.9,7.9 84.7,6.3 82,6.3 C79.8,6.3 78.4,7.4 77.3,9.2 L76.7,9.2 L76.7,5.6 C78.4,5.1 80.3,4.7 82.9,4.7 C88.1,4.7 89.2,7.4 89.2,10.3 L89.2,19.5 C89.2,20.9 89.6,21.3 90.2,21.3 C90.5,21.3 91,21.3 91.2,21.1 L91.5,21.8 C91.4,22 90.5,22.5 89.6,23.1 L89.6,23.1 Z M85.8,14.3 L83.2,14.3 C80.6,14.3 78.3,15.7 78.3,18.5 C78.3,20.5 79.7,21.7 81.3,21.7 C83.1,21.7 84.8,20.7 85.8,19.2 L85.8,14.3 L85.8,14.3 Z"></path>
                            <path d="M108.5,23.5 C107.9,23.5 105.5,23.6 104.9,23.6 L104.9,23.1 C105.8,22.7 106.8,22.2 106.8,21.4 L106.8,12.8 C106.8,9.7 105.6,7.2 102.4,7.2 C100.4,7.2 98.7,8.5 97.8,9.6 L97.8,21.4 C97.8,22.3 98.7,22.7 99.8,23.1 L99.8,23.6 C99.2,23.6 96.7,23.5 96.1,23.5 C95.5,23.5 93.1,23.6 92.5,23.6 L92.5,23.1 C93.4,22.7 94.4,22.2 94.4,21.4 L94.4,9.8 C94.4,8.4 93.6,7.7 92.2,7.4 L92.2,6.9 L97.1,4.9 L97.6,4.9 L97.8,7.8 C99.4,6.3 101.4,4.9 104.1,4.9 C107.9,4.9 110.1,7.3 110.1,10.3 L110.1,21.4 C110.1,22.3 111,22.7 112.1,23.1 L112.1,23.6 C111.6,23.6 109.1,23.5 108.5,23.5"></path>
                            <path d="M117.8,23.5 C117.2,23.5 114.8,23.6 114.2,23.6 L114.2,23.1 C115.1,22.7 116.1,22.2 116.1,21.4 L116.1,9.8 C116.1,8.4 115.3,7.7 113.9,7.4 L113.9,6.9 L119,4.9 L119.5,4.9 L119.5,21.4 C119.5,22.3 120.4,22.7 121.5,23.1 L121.5,23.6 C121,23.6 118.4,23.5 117.8,23.5"></path>
                            <path d="M130.2,23.9 C128.1,23.9 126,22.9 126,18.7 L126,6.9 L123.3,6.9 L123.3,5.8 L125.7,5.1 C127,4 127.6,2.2 127.9,0.1 L129.4,0.1 L129.4,5.2 L134.8,5.2 L134.8,6.9 L129.4,6.9 L129.4,18.2 C129.4,20.5 130.2,21.3 131.5,21.3 C132.8,21.3 133.7,20.6 134.2,20 L134.9,20.7 C134.4,21.6 132.7,23.9 130.2,23.9"></path>
                            <path d="M140.8,23.5 C140.2,23.5 137.8,23.6 137.2,23.6 L137.2,23.1 C138.1,22.7 139.1,22.2 139.1,21.4 L139.1,9.8 C139.1,8.4 138.3,7.7 136.8,7.4 L136.8,6.9 L141.9,4.9 L142.4,4.9 L142.4,21.4 C142.4,22.3 143.3,22.7 144.4,23.1 L144.4,23.6 C143.9,23.6 141.3,23.5 140.8,23.5"></path>
                            <path d="M162.7,12.9 L150.2,12.9 C149.6,18 152.4,21.8 156.6,21.8 C159,21.8 160.6,21.4 161.7,20.3 L162.5,21.1 C161.5,22.2 159.5,23.9 156.1,23.9 C149.9,23.9 146.6,20.1 146.6,14.4 C146.6,8.6 150.6,4.9 155.4,4.9 C160.1,4.9 163.1,8.2 162.9,12 C162.8,12.3 162.8,12.7 162.7,12.9 M155.4,6.5 C152.5,6.5 150.8,9.2 150.4,11.4 L159.3,11.4 C159.5,9.2 158.1,6.5 155.4,6.5"></path>
                            <path d="M171.6,23.9 C169.8,23.9 167.5,23.5 166,23 L166,19.1 L166.6,19.1 C167.8,21.3 169.2,22.3 171.5,22.3 C174,22.3 175.4,21.4 175.4,19.7 C175.4,18.6 174.9,17.9 173.9,17.5 L168.4,14.8 C166.6,13.9 165.5,12.5 165.5,10.4 C165.5,6.8 168.8,4.8 172.3,4.8 C174.1,4.8 176.4,5.2 177.9,5.7 L177.9,9.5 L177.3,9.5 C176.3,7.8 174.7,6.5 172.4,6.5 C170.2,6.5 168.9,7.7 168.9,9.3 C168.9,10.7 169.4,11.4 170.9,12.1 L176.5,14.8 C177.5,15.3 178.7,16.5 178.7,18.5 C178.7,22 176,23.9 171.6,23.9"></path>
                        </g>
                        <g transform="translate(73.000000, 13.000000)" id="Shape">
                            <path d="M0.3,0.3 L1.7,0.3 L3.7,3.6 L3.7,0.3 L4.7,0.3 L4.7,5 L3.3,5 L1.2,1.6 L1.2,5 L0.2,5 L0.2,0.3 L0.3,0.3 Z"></path>
                            <path d="M7.6,0.3 L8.5,0.3 L10.6,5 L9.4,5 L9,4 L7,4 L6.6,5 L5.4,5 L7.6,0.3 L7.6,0.3 Z M8,1.7 L7.4,3.2 L8.6,3.2 L8,1.7 L8,1.7 Z"></path>
                            <path d="M11.5,1.2 L10.1,1.2 L10.1,0.3 L13.9,0.3 L13.9,1.2 L12.5,1.2 L12.5,5 L11.5,5 L11.5,1.2 L11.5,1.2 Z"></path>
                            <path d="M14.6,0.3 L15.6,0.3 L15.6,5 L14.6,5 L14.6,0.3 L14.6,0.3 Z"></path>
                            <path d="M19.1,0.2 C20.6,0.2 21.7,1.2 21.7,2.7 C21.7,4.2 20.6,5.2 19.1,5.2 C17.6,5.2 16.5,4.2 16.5,2.7 C16.5,1.2 17.6,0.2 19.1,0.2 L19.1,0.2 Z M19.1,4.2 C20,4.2 20.6,3.6 20.6,2.7 C20.6,1.8 20,1.2 19.1,1.2 C18.2,1.2 17.6,1.8 17.6,2.7 C17.6,3.6 18.2,4.2 19.1,4.2 L19.1,4.2 Z"></path>
                            <path d="M22.6,0.3 L24,0.3 L26,3.6 L26,0.3 L27,0.3 L27,5 L25.6,5 L23.5,1.6 L23.5,5 L22.5,5 L22.5,0.3 L22.6,0.3 Z"></path>
                            <path d="M29.8,0.3 L30.7,0.3 L32.8,5 L31.6,5 L31.2,4 L29.4,4 L29,5 L27.8,5 L29.8,0.3 L29.8,0.3 Z M30.2,1.7 L29.6,3.2 L30.8,3.2 L30.2,1.7 L30.2,1.7 Z"></path>
                            <path d="M33.4,0.3 L34.4,0.3 L34.4,4.1 L36.3,4.1 L36.3,5.1 L33.3,5.1 L33.3,0.3 L33.4,0.3 Z"></path>
                        </g>
                        <g transform="translate(111.000000, 13.000000)" id="Shape">
                            <path d="M0.9,0.3 L4.1,0.3 L4.1,1.3 L1.9,1.3 L1.9,2.2 L4,2.2 L4,3.2 L1.9,3.2 L1.9,4.2 L4.2,4.2 L4.2,5.2 L0.9,5.2 L0.9,0.3 L0.9,0.3 Z"></path>
                            <path d="M5.2,0.3 L6.6,0.3 L8.6,3.6 L8.6,0.3 L9.6,0.3 L9.6,5 L8.2,5 L6.1,1.6 L6.1,5 L5.1,5 L5.1,0.3 L5.2,0.3 Z"></path>
                            <path d="M10.9,0.3 L12.5,0.3 C14,0.3 15.3,0.9 15.3,2.7 C15.3,4.2 14,5.1 12.6,5.1 L10.9,5.1 L10.9,0.3 L10.9,0.3 Z M11.9,4.1 L12.4,4.1 C13.4,4.1 14.1,3.7 14.1,2.7 C14.1,1.8 13.4,1.3 12.5,1.3 L11.9,1.3 L11.9,4.1 L11.9,4.1 Z"></path>
                            <path d="M18.5,0.2 C20,0.2 21.1,1.2 21.1,2.7 C21.1,4.2 20,5.2 18.5,5.2 C17,5.2 15.9,4.2 15.9,2.7 C15.9,1.2 17,0.2 18.5,0.2 L18.5,0.2 Z M18.5,4.2 C19.4,4.2 20,3.6 20,2.7 C20,1.8 19.4,1.2 18.5,1.2 C17.6,1.2 17,1.8 17,2.7 C17,3.6 17.6,4.2 18.5,4.2 L18.5,4.2 Z"></path>
                            <path d="M21.5,0.3 L22.6,0.3 L23.4,3.3 L24.4,0.3 L25.4,0.3 L26.4,3.4 L27.2,0.3 L28.3,0.3 L26.9,5 L26,5 L25,1.7 L24,5 L23.1,5 L21.5,0.3 L21.5,0.3 Z"></path>
                            <path d="M28.9,0.3 L30.5,0.3 L31.6,3.4 L32.7,0.3 L34.3,0.3 L34.3,5 L33.3,5 L33.3,1.4 L32.1,5 L31.3,5 L30.1,1.4 L30.1,5 L29.1,5 L29.1,0.3 L28.9,0.3 Z"></path>
                            <path d="M35.4,0.3 L38.6,0.3 L38.6,1.3 L36.4,1.3 L36.4,2.2 L38.5,2.2 L38.5,3.2 L36.4,3.2 L36.4,4.2 L38.7,4.2 L38.7,5.2 L35.4,5.2 L35.4,0.3 L35.4,0.3 Z"></path>
                            <path d="M39.8,0.3 L41.2,0.3 L43.2,3.6 L43.2,0.3 L44.2,0.3 L44.2,5 L42.8,5 L40.7,1.6 L40.7,5 L39.7,5 L39.7,0.3 L39.8,0.3 Z"></path>
                            <path d="M46.4,1.2 L45,1.2 L45,0.3 L48.8,0.3 L48.8,1.2 L47.4,1.2 L47.4,5 L46.4,5 L46.4,1.2 L46.4,1.2 Z"></path>
                        </g>
                        <g transform="translate(162.000000, 13.000000)" id="Shape">
                            <path d="M0.2,0.3 L3.4,0.3 L3.4,1.3 L1.3,1.3 L1.3,2.3 L3.3,2.3 L3.3,3.3 L1.3,3.3 L1.3,5.1 L0.3,5.1 L0.3,0.3 L0.2,0.3 Z"></path>
                            <path d="M6.6,0.2 C8.1,0.2 9.2,1.2 9.2,2.7 C9.2,4.2 8.1,5.2 6.6,5.2 C5.1,5.2 4,4.2 4,2.7 C4.1,1.2 5.2,0.2 6.6,0.2 L6.6,0.2 Z M6.6,4.2 C7.5,4.2 8.1,3.6 8.1,2.7 C8.1,1.8 7.5,1.2 6.6,1.2 C5.7,1.2 5.1,1.8 5.1,2.7 C5.2,3.6 5.8,4.2 6.6,4.2 L6.6,4.2 Z"></path>
                            <path d="M10.1,0.3 L11.9,0.3 C12.9,0.3 13.7,0.6 13.7,1.7 C13.7,2.4 13.3,2.9 12.7,3 L13.9,5 L12.6,5 L11.6,3.1 L11.1,3.1 L11.1,5 L10.1,5 L10.1,0.3 L10.1,0.3 Z M11.2,2.3 L11.8,2.3 C12.2,2.3 12.7,2.3 12.7,1.8 C12.7,1.3 12.3,1.3 11.9,1.3 L11.2,1.3 L11.2,2.3 L11.2,2.3 Z"></path>
                        </g>
                        <g transform="translate(177.000000, 13.000000)" id="Shape">
                            <path d="M2.2,1.2 L0.8,1.2 L0.8,0.3 L4.6,0.3 L4.6,1.2 L3.2,1.2 L3.2,5 L2.2,5 L2.2,1.2 L2.2,1.2 Z"></path>
                            <path d="M5.4,0.3 L6.4,0.3 L6.4,2.1 L8.4,2.1 L8.4,0.3 L9.4,0.3 L9.4,5 L8.4,5 L8.4,3 L6.4,3 L6.4,5 L5.4,5 L5.4,0.3 L5.4,0.3 Z"></path>
                            <path d="M10.7,0.3 L13.9,0.3 L13.9,1.3 L11.7,1.3 L11.7,2.2 L13.8,2.2 L13.8,3.2 L11.7,3.2 L11.7,4.2 L14,4.2 L14,5.2 L10.7,5.2 L10.7,0.3 L10.7,0.3 Z"></path>
                        </g>
                        <g id="Shape">
                            <path d="M34.2,30.9 C34.2,32.7 32.8,34.1 31,34.1 C29.2,34.1 27.8,32.7 27.8,30.9 C27.8,29.1 29.3,27.7 31,27.7 C32.8,27.7 34.2,29.1 34.2,30.9"></path>
                            <path d="M29,2.5 C28.9,0.9 29.5,0.6 31,0.6 C32.4,0.6 33.1,0.9 33,2.5 L31.6,22.3 C31.5,22.7 31.3,23.7 31,23.7 C30.6,23.7 30.4,22.7 30.4,22.3 L29,2.5 L29,2.5 Z"></path>
                            <path d="M49.7,9.4 C50.8,8.2 51.4,8.4 52.4,9.4 C53.4,10.4 53.6,11.1 52.4,12.1 L37.5,25.1 C37.1,25.4 36.3,25.9 36,25.6 C35.7,25.3 36.3,24.5 36.6,24.1 L49.7,9.4 L49.7,9.4 Z"></path>
                            <path d="M59.4,29 C61,28.9 61.3,29.5 61.3,31 C61.3,32.4 61,33.1 59.4,33 L39.6,31.6 C39.2,31.5 38.2,31.4 38.2,31 C38.2,30.6 39.2,30.4 39.6,30.4 L59.4,29 L59.4,29 Z"></path>
                            <path d="M52.5,49.6 C53.7,50.7 53.5,51.3 52.5,52.3 C51.5,53.3 50.8,53.5 49.8,52.3 L36.8,37.4 C36.5,37 36,36.2 36.2,35.9 C36.5,35.6 37.3,36.2 37.7,36.5 L52.5,49.6 L52.5,49.6 Z"></path>
                            <path d="M33,59.3 C33.1,60.9 32.5,61.2 31,61.2 C29.6,61.2 28.9,60.9 29,59.3 L30.4,39.5 C30.5,39.1 30.6,38.1 31,38.1 C31.4,38.1 31.6,39.1 31.6,39.5 L33,59.3 L33,59.3 Z"></path>
                            <path d="M12.3,52.4 C11.2,53.6 10.6,53.4 9.6,52.4 C8.6,51.4 8.4,50.7 9.6,49.7 L24.5,36.7 C24.9,36.4 25.7,35.9 26,36.2 C26.3,36.5 25.7,37.3 25.4,37.7 L12.3,52.4 L12.3,52.4 Z"></path>
                            <path d="M2.6,32.9 C1,33 0.7,32.4 0.7,30.9 C0.7,29.5 1,28.8 2.6,28.9 L22.4,30.3 C22.8,30.4 23.8,30.5 23.8,30.9 C23.8,31.3 22.8,31.5 22.4,31.5 L2.6,32.9 L2.6,32.9 Z"></path>
                            <path d="M9.5,12.2 C8.3,11.1 8.5,10.5 9.5,9.5 C10.5,8.5 11.2,8.3 12.2,9.5 L25.2,24.4 C25.5,24.8 26,25.6 25.8,25.9 C25.5,26.2 24.7,25.6 24.3,25.3 L9.5,12.2 L9.5,12.2 Z"></path>
                            <path d="M34.6,21.8 C34.4,22.4 34.4,23.1 34.2,23.7 C34,24.3 33.9,24.4 33.4,24.3 C32.5,24 33.5,20.8 33.7,20.4 C35,16.3 40.7,12.3 41.9,8.8 C42.5,6.8 41.6,4.6 39.4,3.9 C37.6,3.3 36.8,4.4 36.2,4.2 C36,4.1 35.9,3.9 36,3.7 C36.3,2.8 38.2,1.5 41.8,2.7 C44.7,3.6 46.4,6.7 45.5,9.6 C43.7,14.4 36.6,15.4 34.6,21.8"></path>
                            <path d="M40,27 C39.4,27.3 38.9,27.7 38.4,28 C37.9,28.3 37.7,28.3 37.4,27.8 C37,27 39.9,25.4 40.4,25.2 C44.2,23.2 51.1,24.5 54.4,22.8 C56.3,21.8 57.1,19.6 56.1,17.6 C55.2,15.9 53.9,16.1 53.6,15.5 C53.5,15.3 53.6,15.1 53.8,15 C54.6,14.6 56.9,15 58.6,18.4 C60,21.1 59,24.5 56.3,25.9 C51.7,28.3 45.9,23.9 40,27"></path>
                            <path d="M40.1,34.5 C39.5,34.3 38.8,34.3 38.2,34.1 C37.6,33.9 37.5,33.8 37.6,33.3 C37.9,32.4 41.1,33.4 41.5,33.6 C45.6,34.9 49.6,40.6 53.1,41.8 C55.1,42.4 57.3,41.5 58,39.3 C58.6,37.5 57.5,36.7 57.7,36.1 C57.8,35.9 58,35.8 58.2,35.9 C59.1,36.2 60.4,38.1 59.2,41.7 C58.3,44.6 55.2,46.3 52.3,45.3 C47.5,43.7 46.5,36.5 40.1,34.5"></path>
                            <path d="M34.9,39.9 C34.6,39.3 34.2,38.8 33.9,38.3 C33.6,37.8 33.6,37.6 34.1,37.3 C34.9,36.9 36.5,39.8 36.7,40.3 C38.7,44.1 37.4,51 39.1,54.3 C40.1,56.2 42.3,57 44.3,56 C46,55.1 45.8,53.8 46.4,53.5 C46.6,53.4 46.8,53.5 46.9,53.7 C47.3,54.5 46.9,56.8 43.5,58.5 C40.8,59.9 37.4,58.9 36,56.2 C33.7,51.6 38,45.9 34.9,39.9"></path>
                            <path d="M27.4,40 C27.6,39.4 27.6,38.7 27.8,38.1 C28,37.5 28.1,37.4 28.6,37.5 C29.5,37.8 28.5,41 28.3,41.4 C27,45.5 21.3,49.5 20.1,53 C19.5,55 20.4,57.2 22.6,57.9 C24.4,58.5 25.2,57.4 25.8,57.6 C26,57.7 26.1,57.9 26,58.1 C25.7,59 23.8,60.3 20.2,59.1 C17.3,58.2 15.6,55.1 16.5,52.2 C18.3,47.4 25.4,46.4 27.4,40"></path>
                            <path d="M22,34.8 C22.6,34.5 23.1,34.1 23.6,33.8 C24.1,33.5 24.3,33.5 24.6,34 C25,34.8 22.1,36.4 21.6,36.6 C17.8,38.6 10.9,37.3 7.6,39 C5.7,40 4.9,42.2 5.9,44.2 C6.8,45.9 8.1,45.7 8.4,46.3 C8.5,46.5 8.4,46.7 8.2,46.8 C7.4,47.2 5.1,46.8 3.4,43.4 C2,40.7 3,37.3 5.7,35.9 C10.4,33.6 16.1,37.9 22,34.8"></path>
                            <path d="M21.9,27.4 C22.5,27.6 23.2,27.7 23.8,27.8 C24.4,28 24.5,28.1 24.4,28.6 C24.1,29.5 20.9,28.5 20.5,28.3 C16.4,27 12.4,21.2 8.9,20.1 C6.9,19.5 4.7,20.4 4,22.6 C3.4,24.4 4.5,25.2 4.3,25.8 C4.2,26 4,26.1 3.8,26 C2.9,25.7 1.6,23.8 2.8,20.2 C3.7,17.3 6.8,15.6 9.7,16.5 C14.5,18.2 15.5,25.3 21.9,27.4"></path>
                            <path d="M27.1,22 C27.4,22.6 27.8,23.1 28.1,23.6 C28.4,24.1 28.4,24.3 27.9,24.6 C27.1,25 25.5,22.1 25.3,21.6 C23.3,17.8 24.6,10.9 22.9,7.6 C21.9,5.7 19.7,4.9 17.7,5.9 C16,6.8 16.2,8.1 15.6,8.4 C15.4,8.5 15.2,8.4 15.1,8.2 C14.7,7.4 15.1,5.1 18.5,3.4 C21.2,2 24.6,3 26,5.7 C28.3,10.3 24,16 27.1,22"></path>
                        </g>
                    </g>
                </g>
            </g>
        </g>
    </g>
</svg>