<?xml version="1.0" encoding="UTF-8" standalone="no"?>
<svg width="64px" height="64px" viewBox="0 0 64 64" version="1.1" xmlns="http://www.w3.org/2000/svg" xmlns:xlink="http://www.w3.org/1999/xlink" xmlns:sketch="http://www.bohemiancoding.com/sketch/ns">
    <!-- Generator: sketchtool 3.4.2 (385) - http://www.bohemiancoding.com/sketch -->
    <title>FooterLogo - NSF</title>
    <desc>Created with sketchtool.</desc>
    <defs></defs>
    <g id="Assets" stroke="none" stroke-width="1" fill="none" fill-rule="evenodd" sketch:type="MSPage">
        <g sketch:type="MSArtboardGroup" transform="translate(-707.000000, -4718.000000)" id="Footer">
            <g sketch:type="MSLayerGroup" transform="translate(195.000000, 4616.000000)">
                <g id="FooterLogo---NSF" transform="translate(511.500000, 102.402344)" sketch:type="MSShapeGroup">
                    <g id="Group">
                        <path d="M32.4444444,9.42222222 C20.1777778,9.42222222 10.2222222,19.3777778 10.2222222,31.6444444 C10.2222222,43.9111111 20.1777778,53.8666667 32.4444444,53.8666667 C44.7111111,53.8666667 54.6666667,43.9111111 54.6666667,31.6444444 C54.6666667,19.3777778 44.7111111,9.42222222 32.4444444,9.42222222 L32.4444444,9.42222222 Z M32.4444444,53.3333333 C20.4444444,53.3333333 10.7555556,43.6444444 10.7555556,31.6444444 C10.7555556,19.6444444 20.4444444,9.86666667 32.5333333,9.86666667 C44.4444444,9.86666667 54.2222222,19.6444444 54.2222222,31.6444444 C54.2222222,43.6444444 44.4444444,53.3333333 32.4444444,53.3333333 L32.4444444,53.3333333 Z" id="Shape" stroke="#FFFFFF"></path>
                        <g id="Shape" fill="#FFFFFF">
                            <path d="M12.7111111,38.3111111 C13.9555556,38.1333333 14.5777778,38.0444444 14.5777778,36.6222222 L14.5777778,26.4 C13.3333333,24.9777778 13.0666667,24.8888889 12.7111111,24.8888889 L12.7111111,24.3555556 L17.2444444,24.3555556 L24.7111111,33.5111111 L24.7111111,27.0222222 C24.7111111,25.7777778 24.4444444,25.0666667 22.7555556,24.8888889 L22.7555556,24.3555556 L27.3777778,24.3555556 L27.3777778,24.8888889 C25.8666667,25.0666667 25.6888889,25.6 25.6888889,26.5777778 L25.6888889,39.2 L25.0666667,39.2 L15.5555556,27.5555556 L15.5555556,36.1777778 C15.5555556,37.6888889 16,38.1333333 17.6,38.3111111 L17.6,38.8444444 L12.7111111,38.8444444 L12.7111111,38.3111111 L12.7111111,38.3111111 Z"></path>
                            <path d="M37.6,28.6222222 C37.2444444,27.1111111 35.9111111,24.6222222 33.4222222,24.6222222 C32.2666667,24.6222222 31.1111111,25.2444444 31.1111111,26.6666667 C31.1111111,27.8222222 31.5555556,28.2666667 33.3333333,29.1555556 L36.4444444,30.7555556 C37.1555556,31.1111111 38.8444444,32.3555556 38.8444444,34.6666667 C38.8444444,36.5333333 37.5111111,39.1111111 33.5111111,39.1111111 C31.4666667,39.1111111 30.4888889,38.4 29.8666667,38.4 C29.4222222,38.4 29.3333333,38.7555556 29.2444444,39.1111111 L28.6222222,39.1111111 L28.6222222,33.7777778 L29.2444444,33.7777778 C29.6888889,35.9111111 30.9333333,38.4 33.6,38.4 C36.1777778,38.4 36.2666667,36.2666667 36.2666667,36 C36.2666667,34.5777778 35.2888889,34.0444444 33.8666667,33.4222222 L32.4444444,32.7111111 C28.8,30.9333333 28.8,29.0666667 28.8,28.0888889 C28.8,26.7555556 29.4222222,23.8222222 33.5111111,23.8222222 C35.2,23.8222222 36.2666667,24.5333333 36.8888889,24.5333333 C37.4222222,24.5333333 37.5111111,24.1777778 37.6,23.8222222 L38.2222222,23.8222222 L38.2222222,28.4444444 L37.6,28.4444444 L37.6,28.6222222 Z"></path>
                            <path d="M40.0888889,24.3555556 L52.2666667,24.3555556 L52.2666667,28.7111111 L51.7333333,28.7111111 C51.2888889,26.4888889 50.6666667,25.1555556 47.0222222,25.1555556 C45.8666667,25.1555556 45.5111111,25.2444444 45.5111111,26.1333333 L45.5111111,31.1111111 C48.1777778,31.1111111 48.5333333,29.6 48.8,27.9111111 L49.3333333,27.9111111 L49.3333333,35.2 L48.8,35.2 C48.5333333,33.4222222 48.1777778,31.9111111 45.5111111,31.9111111 L45.5111111,36.8888889 C45.5111111,38.3111111 46.4,38.3111111 47.9111111,38.4 L47.9111111,38.9333333 L40.1777778,38.9333333 L40.1777778,38.4 C41.4222222,38.3111111 42.0444444,38.2222222 42.0444444,36.8888889 L42.0444444,26.4 C42.0444444,24.9777778 41.1555556,24.9777778 40.1777778,24.8888889 L40.1777778,24.3555556 L40.0888889,24.3555556 Z"></path>
                            <path d="M59.2,28.1777778 C59.0222222,27.6444444 58.8444444,27.1111111 58.6666667,26.5777778 C58.5777778,25.6 58.5777778,24.5333333 58.5777778,23.6444444 C58.9333333,21.7777778 60.2666667,20.7111111 61.9555556,20.1777778 C61.7777778,19.7333333 61.5111111,19.1111111 61.3333333,18.7555556 C59.5555556,19.6444444 57.4222222,19.7333333 55.8222222,18.2222222 C55.4666667,17.8666667 55.1111111,17.5111111 54.8444444,17.1555556 C54.3111111,16.1777778 53.8666667,15.2 53.5111111,14.3111111 C53.1555556,12.4444444 54.0444444,11.0222222 55.2888889,9.77777778 C54.9333333,9.42222222 54.4888889,8.97777778 54.2222222,8.71111111 C52.8888889,10.2222222 51.0222222,11.1111111 48.9777778,10.3111111 C48.6222222,10.1333333 48.1777778,9.95555556 47.8222222,9.77777778 C46.9333333,9.06666667 46.1333333,8.26666667 45.4222222,7.55555556 C44.3555556,5.95555556 44.6222222,4.26666667 45.3333333,2.66666667 C44.8888889,2.48888889 44.2666667,2.22222222 43.9111111,2.04444444 C43.2888889,3.91111111 41.8666667,5.51111111 39.6444444,5.6 C38.9333333,5.6 38.3111111,5.51111111 37.6,5.51111111 C36.7111111,5.24444444 35.9111111,4.88888889 35.2,4.62222222 C33.6,3.55555556 33.1555556,1.95555556 33.2444444,0.177777778 L31.6444444,0.177777778 C31.7333333,2.13333333 31.1111111,4.17777778 29.0666667,5.06666667 C28.6222222,5.24444444 28.1777778,5.42222222 27.6444444,5.6 C26.5777778,5.68888889 25.4222222,5.68888889 24.5333333,5.68888889 C22.6666667,5.33333333 21.6,4 21.0666667,2.31111111 C20.6222222,2.48888889 20,2.75555556 19.6444444,2.93333333 C20.5333333,4.71111111 20.6222222,6.84444444 19.1111111,8.44444444 C18.6666667,8.8 18.3111111,9.15555556 17.8666667,9.6 C16.8888889,10.1333333 15.9111111,10.4888889 15.1111111,10.8444444 C13.2444444,11.2 11.8222222,10.3111111 10.5777778,9.06666667 L9.51111111,10.1333333 C11.0222222,11.4666667 11.9111111,13.3333333 11.1111111,15.3777778 C10.9333333,15.8222222 10.7555556,16.2666667 10.4888889,16.6222222 C9.77777778,17.4222222 9.06666667,18.2222222 8.35555556,18.8444444 C6.75555556,19.9111111 5.06666667,19.6444444 3.46666667,18.9333333 C3.28888889,19.3777778 3.02222222,20 2.84444444,20.3555556 C4.71111111,20.9777778 6.31111111,22.4 6.4,24.6222222 C6.4,25.2444444 6.31111111,25.7777778 6.31111111,26.4 C6.04444444,27.3777778 5.6,28.2666667 5.33333333,29.0666667 C4.26666667,30.6666667 2.66666667,31.1111111 0.888888889,31.0222222 L0.888888889,32.6222222 C2.84444444,32.5333333 4.88888889,33.1555556 5.77777778,35.2 C5.95555556,35.6444444 6.13333333,36.1777778 6.31111111,36.6222222 C6.4,37.6888889 6.4,38.7555556 6.4,39.7333333 C6.04444444,41.6 4.71111111,42.6666667 3.02222222,43.2 C3.2,43.6444444 3.46666667,44.2666667 3.64444444,44.6222222 C5.42222222,43.7333333 7.55555556,43.6444444 9.15555556,45.1555556 C9.51111111,45.5111111 9.86666667,45.9555556 10.2222222,46.4 C10.7555556,47.3777778 11.1111111,48.2666667 11.4666667,49.1555556 C11.8222222,51.0222222 10.9333333,52.4444444 9.68888889,53.6888889 C10.0444444,54.0444444 10.4888889,54.4888889 10.7555556,54.7555556 C12.0888889,53.2444444 13.9555556,52.3555556 16,53.1555556 C16.4444444,53.3333333 16.8888889,53.6 17.3333333,53.7777778 C18.1333333,54.4888889 18.9333333,55.2 19.5555556,55.8222222 C20.6222222,57.4222222 20.3555556,59.1111111 19.6444444,60.7111111 C20.0888889,60.8888889 20.7111111,61.1555556 21.0666667,61.3333333 C21.6888889,59.4666667 23.1111111,57.8666667 25.3333333,57.7777778 C25.8666667,57.7777778 26.4888889,57.8666667 27.0222222,57.8666667 C28,58.1333333 28.9777778,58.5777778 29.7777778,58.9333333 C31.3777778,60 31.8222222,61.6 31.7333333,63.3777778 L33.3333333,63.3777778 C33.2444444,61.4222222 33.8666667,59.3777778 35.9111111,58.4888889 C36.4444444,58.3111111 36.9777778,58.1333333 37.5111111,57.9555556 C38.4888889,57.8666667 39.5555556,57.8666667 40.4444444,57.8666667 C42.3111111,58.2222222 43.3777778,59.5555556 43.9111111,61.2444444 C44.3555556,61.0666667 44.9777778,60.8 45.3333333,60.6222222 C44.4444444,58.8444444 44.3555556,56.7111111 45.8666667,55.1111111 C46.3111111,54.7555556 46.6666667,54.4 47.1111111,53.9555556 C48,53.5111111 48.8888889,53.0666667 49.7777778,52.8 C51.6444444,52.4444444 53.0666667,53.3333333 54.3111111,54.5777778 C54.6666667,54.2222222 55.1111111,53.7777778 55.3777778,53.5111111 C53.8666667,52.1777778 52.9777778,50.3111111 53.7777778,48.2666667 C54.0444444,47.7333333 54.3111111,47.1111111 54.5777778,46.5777778 C55.2,45.7777778 55.9111111,45.1555556 56.5333333,44.5333333 C58.1333333,43.4666667 59.8222222,43.7333333 61.4222222,44.4444444 C61.6,44 61.8666667,43.3777778 62.0444444,43.0222222 C60.1777778,42.4 58.5777778,40.9777778 58.4888889,38.7555556 C58.4888889,38.1333333 58.5777778,37.5111111 58.5777778,36.8888889 C58.8444444,36 59.2,35.1111111 59.5555556,34.4 C60.6222222,32.8 62.2222222,32.3555556 64,32.4444444 L64,30.8444444 C62.1333333,30.8444444 60.0888889,30.1333333 59.2,28.1777778 M57.7777778,29.0666667 L57.5111111,29.4222222 C56.9777778,29.9555556 56.0888889,29.7777778 55.4666667,29.6888889 C55.0222222,29.6 54.5777778,29.5111111 54.1333333,29.3333333 C54.2222222,29.9555556 54.2222222,30.4888889 54.2222222,31.1111111 L54.2222222,31.1111111 C54.3111111,31.3777778 54.3111111,31.5555556 54.2222222,31.7333333 C54.2222222,32.3555556 54.2222222,32.9777778 54.1333333,33.6 C54.6666667,33.4222222 55.2,33.3333333 55.8222222,33.2444444 C56.4444444,33.1555556 57.0666667,33.1555556 57.5111111,33.6 C57.9555556,34.4 57.7777778,35.7333333 57.6888889,36.6222222 L57.6888889,36.8 C57.5111111,37.5111111 57.3333333,38.2222222 56.9777778,38.8444444 L56.5333333,39.1111111 C55.8222222,39.3777778 55.1111111,38.9333333 54.4888889,38.5777778 C54.1333333,38.3111111 53.6888889,38.0444444 53.3333333,37.7777778 C53.1555556,38.3111111 52.9777778,38.9333333 52.8,39.4666667 C52.8,39.4666667 52.8,39.4666667 52.8,39.5555556 C52.8,39.8222222 52.7111111,40 52.5333333,40.0888889 C52.2666667,40.6222222 52,41.2444444 51.7333333,41.7777778 C52.2666667,41.8666667 52.8888889,41.9555556 53.4222222,42.1333333 C53.9555556,42.3111111 54.5777778,42.4888889 54.8444444,43.1111111 C55.0222222,44 54.3111111,45.1555556 53.8666667,46.0444444 L53.8666667,46.1333333 C53.4222222,46.7555556 52.9777778,47.4666667 52.2666667,47.9111111 L51.8222222,48 C51.1111111,48 50.5777778,47.2888889 50.1333333,46.7555556 C49.8666667,46.3111111 49.6,45.9555556 49.3333333,45.5111111 C48.9777778,45.9555556 48.5333333,46.4 48.1777778,46.8444444 L48.1777778,46.9333333 C48.0888889,47.2 47.9111111,47.2888889 47.6444444,47.3777778 C47.2,47.8222222 46.7555556,48.1777778 46.3111111,48.6222222 C46.8444444,48.8888889 47.2888889,49.2444444 47.8222222,49.6 C48.2666667,49.9555556 48.8,50.4 48.7111111,51.0222222 C48.5333333,51.8222222 47.5555556,52.6222222 46.8444444,53.1555556 C46.1333333,53.6 45.4222222,54.0444444 44.5333333,54.3111111 L44.0888889,54.2222222 C43.3777778,53.9555556 43.2,53.0666667 43.0222222,52.4444444 C42.9333333,52 42.8444444,51.4666667 42.7555556,51.0222222 C42.2222222,51.2888889 41.6888889,51.5555556 41.1555556,51.8222222 L41.1555556,51.9111111 C40.9777778,52.1777778 40.7111111,52.1777778 40.5333333,52.0888889 C40,52.3555556 39.3777778,52.5333333 38.7555556,52.7111111 C39.1111111,53.1555556 39.4666667,53.6888889 39.7333333,54.1333333 C40,54.6666667 40.2666667,55.2 40.0888889,55.8222222 C39.5555556,56.5333333 38.4,56.8888889 37.5111111,57.1555556 C36.7111111,57.3333333 35.8222222,57.4222222 34.9333333,57.3333333 L34.6666667,56.7111111 C34.1333333,56.1777778 34.3111111,55.2888889 34.4,54.6666667 C34.4888889,54.2222222 34.6666667,53.6888889 34.7555556,53.2444444 C34.1333333,53.3333333 33.6,53.3333333 32.9777778,53.3333333 L32.9777778,53.4222222 C32.7111111,53.5111111 32.5333333,53.5111111 32.3555556,53.3333333 C31.7333333,53.3333333 31.1111111,53.3333333 30.4888889,53.2444444 C30.6666667,53.7777778 30.7555556,54.4 30.8444444,54.9333333 C30.9333333,55.5555556 30.9333333,56.1777778 30.4888889,56.6222222 C29.7777778,57.0666667 28.6222222,56.9777778 27.7333333,56.8888889 C26.8444444,56.7111111 25.9555556,56.5333333 25.1555556,56 L24.8888889,55.6444444 C24.6222222,54.9333333 25.0666667,54.2222222 25.4222222,53.6 C25.6888889,53.2444444 25.9555556,52.8 26.2222222,52.4444444 C25.6888889,52.2666667 25.0666667,52.0888889 24.5333333,51.8222222 C24.5333333,51.8222222 24.5333333,51.8222222 24.4444444,51.8222222 C24.1777778,51.8222222 24,51.7333333 23.9111111,51.5555556 C23.3777778,51.2888889 22.7555556,51.0222222 22.2222222,50.7555556 C22.1333333,51.2888889 22.0444444,51.9111111 21.8666667,52.4444444 C21.6888889,52.9777778 21.5111111,53.6 20.8888889,53.8666667 C20.0888889,53.9555556 19.2,53.5111111 18.4888889,53.1555556 C17.6888889,52.6222222 16.8888889,52.0888889 16.2666667,51.2888889 L16.1777778,50.8444444 C16.1777778,50.1333333 16.8888889,49.6 17.4222222,49.1555556 C17.8666667,48.8888889 18.2222222,48.6222222 18.5777778,48.4444444 C18.1333333,48.0888889 17.6888889,47.6444444 17.2444444,47.2888889 L17.2444444,47.2888889 C16.9777778,47.2 16.8888889,47.0222222 16.8888889,46.8444444 C16.4444444,46.4 16,45.9555556 15.6444444,45.4222222 C15.3777778,45.8666667 15.0222222,46.4 14.7555556,46.8444444 C14.4,47.2888889 13.9555556,47.8222222 13.3333333,47.7333333 C12.5333333,47.5555556 11.8222222,46.6666667 11.2888889,46.0444444 C10.7555556,45.2444444 10.2222222,44.4444444 9.95555556,43.5555556 L10.0444444,43.1111111 C10.3111111,42.4 11.2,42.2222222 11.8222222,42.0444444 C12.2666667,41.9555556 12.7111111,41.8666667 13.1555556,41.8666667 C12.8888889,41.3333333 12.6222222,40.8 12.3555556,40.2666667 L12.3555556,40.2666667 C12.1777778,40.0888889 12.0888889,39.9111111 12.1777778,39.7333333 C11.9111111,39.1111111 11.7333333,38.5777778 11.5555556,37.9555556 C11.1111111,38.3111111 10.6666667,38.5777778 10.1333333,38.9333333 C9.6,39.2 9.06666667,39.4666667 8.44444444,39.2888889 C7.82222222,38.8444444 7.46666667,37.8666667 7.2,37.0666667 C7.02222222,36.1777778 6.84444444,35.1111111 6.93333333,34.1333333 L7.2,33.7777778 C7.73333333,33.2444444 8.62222222,33.4222222 9.24444444,33.5111111 C9.68888889,33.6 10.1333333,33.6888889 10.5777778,33.8666667 C10.4888889,33.2444444 10.4888889,32.7111111 10.4888889,32.0888889 L10.4888889,32.0888889 C10.4,31.8222222 10.4,31.6444444 10.4888889,31.4666667 C10.4888889,30.8444444 10.4888889,30.2222222 10.5777778,29.6 C10.0444444,29.7777778 9.51111111,29.8666667 8.88888889,29.9555556 C8.26666667,30.0444444 7.64444444,30.0444444 7.28888889,29.6 C6.84444444,28.8 6.93333333,27.5555556 7.11111111,26.6666667 C7.28888889,25.8666667 7.46666667,25.0666667 7.91111111,24.3555556 L8.26666667,24.1777778 C8.97777778,23.9111111 9.68888889,24.3555556 10.3111111,24.7111111 C10.6666667,24.9777778 11.1111111,25.2444444 11.4666667,25.6 C11.6444444,25.0666667 11.8222222,24.4444444 12.0888889,23.9111111 C12.0888889,23.9111111 12.0888889,23.8222222 12,23.8222222 C12,23.4666667 12.0888889,23.2888889 12.3555556,23.2 C12.6222222,22.6666667 12.8888889,22.0444444 13.1555556,21.5111111 C12.5333333,21.4222222 12,21.3333333 11.3777778,21.1555556 C10.8444444,20.9777778 10.2222222,20.8 9.95555556,20.1777778 C9.86666667,19.4666667 10.2222222,18.5777778 10.5777778,17.8666667 C11.1111111,17.0666667 11.6444444,16.2666667 12.4444444,15.6444444 L12.8888889,15.5555556 C13.6,15.5555556 14.1333333,16.2666667 14.5777778,16.8 C14.8444444,17.2444444 15.1111111,17.6 15.2888889,18.0444444 C15.6444444,17.6 16.0888889,17.1555556 16.4444444,16.7111111 L16.4444444,16.6222222 C16.5333333,16.3555556 16.7111111,16.2666667 16.9777778,16.1777778 C17.4222222,15.7333333 17.8666667,15.3777778 18.3111111,14.9333333 C17.7777778,14.6666667 17.3333333,14.3111111 16.8888889,13.9555556 C16.4444444,13.6 15.9111111,13.1555556 16,12.5333333 C16.1777778,11.7333333 17.0666667,11.0222222 17.6888889,10.4888889 C18.4888889,9.95555556 19.2888889,9.42222222 20.2666667,9.15555556 L20.7111111,9.24444444 C21.4222222,9.51111111 21.6,10.4 21.7777778,11.0222222 C21.8666667,11.4666667 21.9555556,12 22.0444444,12.4444444 C22.5777778,12.1777778 23.1111111,11.9111111 23.6444444,11.6444444 L23.6444444,11.5555556 C23.8222222,11.2888889 24.0888889,11.2888889 24.2666667,11.3777778 C24.8,11.1111111 25.4222222,10.9333333 26.0444444,10.7555556 C25.6888889,10.3111111 25.3333333,9.77777778 25.0666667,9.33333333 C24.8888889,8.88888889 24.6222222,8.26666667 24.8888889,7.73333333 C25.3333333,7.11111111 26.2222222,6.75555556 27.0222222,6.57777778 C28,6.4 28.9777778,6.13333333 30.0444444,6.31111111 L30.4,6.57777778 C30.9333333,7.11111111 30.7555556,8 30.6666667,8.62222222 C30.5777778,9.06666667 30.4888889,9.51111111 30.3111111,10.0444444 C30.9333333,9.95555556 31.4666667,9.95555556 32.0888889,9.95555556 L32.0888889,9.86666667 C32.3555556,9.77777778 32.5333333,9.77777778 32.7111111,9.95555556 C33.3333333,9.95555556 33.9555556,9.95555556 34.5777778,10.0444444 C34.4,9.51111111 34.3111111,8.88888889 34.2222222,8.35555556 C34.1333333,7.73333333 34.1333333,7.11111111 34.5777778,6.75555556 C35.3777778,6.31111111 36.7111111,6.48888889 37.6,6.57777778 C37.7777778,6.57777778 37.9555556,6.66666667 38.2222222,6.66666667 C38.7555556,6.84444444 39.3777778,7.02222222 39.9111111,7.28888889 L40.0888889,7.64444444 C40.3555556,8.35555556 39.9111111,9.06666667 39.5555556,9.68888889 C39.2888889,10.1333333 38.9333333,10.4888889 38.6666667,10.9333333 C39.2,11.1111111 39.8222222,11.2888889 40.3555556,11.4666667 C40.4444444,11.4666667 40.4444444,11.3777778 40.5333333,11.3777778 C40.8888889,11.3777778 41.0666667,11.5555556 41.1555556,11.8222222 C41.6888889,12.0888889 42.2222222,12.3555556 42.7555556,12.6222222 C42.8444444,12 42.9333333,11.3777778 43.1111111,10.8444444 C43.2888889,10.3111111 43.4666667,9.68888889 44.0888889,9.42222222 C44.8,9.33333333 45.5111111,9.68888889 46.2222222,9.95555556 C47.0222222,10.5777778 48,11.1111111 48.6222222,12 L48.7111111,12.4444444 C48.7111111,13.1555556 48,13.6888889 47.4666667,14.1333333 C47.0222222,14.4 46.6666667,14.6666667 46.2222222,14.9333333 C46.6666667,15.2888889 47.1111111,15.7333333 47.5555556,16.0888889 L47.6444444,16.0888889 C48,16.1777778 48.0888889,16.3555556 48.0888889,16.6222222 C48.5333333,17.0666667 48.8888889,17.5111111 49.3333333,17.9555556 C49.6,17.4222222 49.9555556,16.9777778 50.3111111,16.4444444 C50.6666667,16 51.1111111,15.4666667 51.7333333,15.5555556 C52.4444444,15.7333333 53.1555556,16.4444444 53.6888889,17.0666667 C54.2222222,17.8666667 54.8444444,18.7555556 55.1111111,19.7333333 L55.0222222,20.1777778 C54.7555556,20.8888889 53.8666667,21.0666667 53.2444444,21.2444444 C52.8,21.3333333 52.3555556,21.4222222 51.8222222,21.4222222 C52.0888889,21.9555556 52.3555556,22.4888889 52.6222222,23.0222222 L52.6222222,23.0222222 C52.8,23.2 52.8888889,23.3777778 52.8,23.5555556 C53.0666667,24.1777778 53.2444444,24.7111111 53.4222222,25.3333333 C53.8666667,24.9777778 54.3111111,24.7111111 54.8444444,24.3555556 C55.3777778,24.0888889 55.9111111,23.8222222 56.5333333,24 C57.2444444,24.5333333 57.6,25.6 57.8666667,26.4888889 C57.7777778,27.2888889 57.9555556,28.1777778 57.7777778,29.0666667"></path>
                        </g>
                    </g>
                </g>
            </g>
        </g>
    </g>
</svg>