<?xml version="1.0" encoding="UTF-8" standalone="no"?>
<svg width="45px" height="45px" viewBox="0 0 45 45" version="1.1" xmlns="http://www.w3.org/2000/svg" xmlns:xlink="http://www.w3.org/1999/xlink">
    <!-- Generator: Sketch 39 (31667) - http://www.bohemiancoding.com/sketch -->
    <title>locations</title>
    <desc>Created with Sketch.</desc>
    <defs></defs>
    <g id="Desktop" stroke="none" stroke-width="1" fill="none" fill-rule="evenodd">
        <g id="Locations" transform="translate(-490.000000, -95.000000)" stroke="#FFFFFF">
            <g id="locations" transform="translate(491.000000, 96.000000)">
                <path d="M8,16 C12.418278,16 16,12.418278 16,8 C16,3.581722 12.418278,0 8,0 C3.581722,0 0,3.581722 0,8 C0,12.418278 3.581722,16 8,16 Z" id="Oval-10-Copy-2"></path>
                <path d="M35,17 C39.418278,17 43,13.418278 43,9 C43,4.581722 39.418278,1 35,1 C30.581722,1 27,4.581722 27,9 C27,13.418278 30.581722,17 35,17 Z" id="Oval-10-Copy-3"></path>
                <path d="M34,43 C38.418278,43 42,39.418278 42,35 C42,30.581722 38.418278,27 34,27 C29.581722,27 26,30.581722 26,35 C26,39.418278 29.581722,43 34,43 Z" id="Oval-10-Copy-4"></path>
                <path d="M8,43 C12.418278,43 16,39.418278 16,35 C16,30.581722 12.418278,27 8,27 C3.581722,27 0,30.581722 0,35 C0,39.418278 3.581722,43 8,43 Z" id="Oval-10-Copy-5"></path>
            </g>
        </g>
    </g>
</svg>