<?xml version="1.0" encoding="UTF-8" standalone="no"?>
<svg width="368px" height="132px" viewBox="0 0 368 132" version="1.1" xmlns="http://www.w3.org/2000/svg" xmlns:xlink="http://www.w3.org/1999/xlink" xmlns:sketch="http://www.bohemiancoding.com/sketch/ns">
    <!-- Generator: sketchtool 3.4.2 (385) - http://www.bohemiancoding.com/sketch -->
    <title>Logo - LargeWhite - WithText</title>
    <desc>Created with sketchtool.</desc>
    <defs></defs>
    <g id="Assets" stroke="none" stroke-width="1" fill="none" fill-rule="evenodd" sketch:type="MSPage">
        <g sketch:type="MSArtboardGroup" transform="translate(-552.000000, -3037.000000)" id="Landing-+-Logo" fill="#FFFFFF">
            <g sketch:type="MSLayerGroup" transform="translate(215.000000, 2763.000000)">
                <g id="Logo---LargeWhite---WithText" transform="translate(337.000000, 274.000000)" sketch:type="MSShapeGroup">
                    <path d="M4.75683594,127.288086 L3.11621094,131 L1.33203125,131 L7.92529297,116.295898 L9.66845703,116.295898 L16.2412109,131 L14.4160156,131 L12.7753906,127.288086 L4.75683594,127.288086 Z M8.74560547,118.213379 L5.47460938,125.667969 L12.0678711,125.667969 L8.74560547,118.213379 Z M20.2299805,117.916016 L20.2299805,123.083984 L27.1000977,123.083984 L27.1000977,124.704102 L20.2299805,124.704102 L20.2299805,131 L18.5483398,131 L18.5483398,116.295898 L27.8896484,116.295898 L27.8896484,117.916016 L20.2299805,117.916016 Z M36.9438477,126.313965 C36.5268534,126.341309 36.1987317,126.35498 35.9594727,126.35498 L32.0527344,126.35498 L32.0527344,131 L30.3710938,131 L30.3710938,116.295898 L35.9594727,116.295898 C37.7915131,116.295898 39.2150828,116.726558 40.2302246,117.587891 C41.2453664,118.449223 41.7529297,119.666008 41.7529297,121.238281 C41.7529297,122.441412 41.4692411,123.447994 40.9018555,124.258057 C40.3344698,125.068119 39.5210014,125.650877 38.4614258,126.006348 L41.8964844,131 L39.9892578,131 L36.9438477,126.313965 Z M39.0510254,123.863281 C39.7722204,123.275388 40.1328125,122.414068 40.1328125,121.279297 C40.1328125,120.171869 39.7722204,119.334475 39.0510254,118.76709 C38.3298304,118.199704 37.2993231,117.916016 35.9594727,117.916016 L32.0527344,117.916016 L32.0527344,124.745117 L35.9594727,124.745117 C37.2993231,124.745117 38.3298304,124.451175 39.0510254,123.863281 L39.0510254,123.863281 Z M45.546875,131 L45.546875,116.295898 L47.2285156,116.295898 L47.2285156,131 L45.546875,131 Z M60.855957,116.823975 C61.7924852,117.203371 62.6196253,117.728024 63.3374023,118.397949 L62.3222656,119.679688 C61.748044,119.105466 61.0798378,118.654299 60.317627,118.326172 C59.5554161,117.998045 58.7744181,117.833984 57.9746094,117.833984 C56.8808539,117.833984 55.8759811,118.092038 54.9599609,118.608154 C54.0439407,119.12427 53.3210476,119.824947 52.7912598,120.710205 C52.261472,121.595463 51.996582,122.567866 51.996582,123.627441 C51.996582,124.680181 52.261472,125.650874 52.7912598,126.539551 C53.3210476,127.428227 54.0456497,128.130613 54.9650879,128.646729 C55.8845261,129.162844 56.8876899,129.420898 57.9746094,129.420898 C58.7744181,129.420898 59.5519982,129.267091 60.307373,128.959473 C61.0627479,128.651854 61.7343721,128.217776 62.3222656,127.657227 L63.3579102,128.815918 C62.6127892,129.513187 61.7651415,130.065184 60.8149414,130.471924 C59.8647413,130.878664 58.89063,131.082031 57.8925781,131.082031 C56.5048759,131.082031 55.2316952,130.750492 54.072998,130.087402 C52.9143008,129.424313 51.9948764,128.521978 51.3146973,127.380371 C50.6345181,126.238764 50.2944336,124.9878 50.2944336,123.627441 C50.2944336,122.280755 50.637936,121.045172 51.3249512,119.920654 C52.0119663,118.796137 52.9399356,117.904056 54.1088867,117.244385 C55.2778379,116.584713 56.5595633,116.254883 57.9541016,116.254883 C58.9521534,116.254883 59.9194289,116.444578 60.855957,116.823975 L60.855957,116.823975 Z M67.6542969,127.288086 L66.0136719,131 L64.2294922,131 L70.8227539,116.295898 L72.565918,116.295898 L79.1386719,131 L77.3134766,131 L75.6728516,127.288086 L67.6542969,127.288086 Z M71.6430664,118.213379 L68.3720703,125.667969 L74.965332,125.667969 L71.6430664,118.213379 Z M91.9458008,131 L83.1274414,119.197754 L83.1274414,131 L81.4458008,131 L81.4458008,116.295898 L83.1889648,116.295898 L92.0073242,128.118652 L92.0073242,116.295898 L93.668457,116.295898 L93.668457,131 L91.9458008,131 Z M114.07373,117.244385 C115.249518,117.904056 116.180905,118.797846 116.86792,119.925781 C117.554935,121.053717 117.898438,122.294427 117.898438,123.647949 C117.898438,125.008308 117.554935,126.255854 116.86792,127.390625 C116.180905,128.525396 115.249518,129.424313 114.07373,130.087402 C112.897943,130.750492 111.6128,131.082031 110.218262,131.082031 C108.803216,131.082031 107.507818,130.750492 106.332031,130.087402 C105.156244,129.424313 104.224857,128.525396 103.537842,127.390625 C102.850827,126.255854 102.507324,125.008308 102.507324,123.647949 C102.507324,122.287591 102.850827,121.041754 103.537842,119.9104 C104.224857,118.779047 105.156244,117.886966 106.332031,117.234131 C107.507818,116.581296 108.803216,116.254883 110.218262,116.254883 C111.6128,116.254883 112.897943,116.584713 114.07373,117.244385 L114.07373,117.244385 Z M107.224121,118.633789 C106.308101,119.153323 105.576663,119.853999 105.029785,120.73584 C104.482907,121.61768 104.209473,122.588374 104.209473,123.647949 C104.209473,124.714361 104.482907,125.69189 105.029785,126.580566 C105.576663,127.469243 106.308101,128.171628 107.224121,128.687744 C108.140141,129.20386 109.138178,129.461914 110.218262,129.461914 C111.298345,129.461914 112.291255,129.20386 113.197021,128.687744 C114.102788,128.171628 114.825681,127.469243 115.365723,126.580566 C115.905764,125.69189 116.175781,124.714361 116.175781,123.647949 C116.175781,122.581538 115.905764,121.609135 115.365723,120.730713 C114.825681,119.852291 114.101079,119.153323 113.191895,118.633789 C112.28271,118.114255 111.291509,117.854492 110.218262,117.854492 C109.138178,117.854492 108.140141,118.114255 107.224121,118.633789 L107.224121,118.633789 Z M131.464355,131 L122.645996,119.197754 L122.645996,131 L120.964355,131 L120.964355,116.295898 L122.70752,116.295898 L131.525879,128.118652 L131.525879,116.295898 L133.187012,116.295898 L133.187012,131 L131.464355,131 Z M145.789062,129.400391 L145.789062,131 L137.657715,131 L137.657715,116.295898 L139.339355,116.295898 L139.339355,129.400391 L145.789062,129.400391 Z M148.506348,131 L148.506348,116.295898 L150.187988,116.295898 L150.187988,131 L148.506348,131 Z M165.138184,131 L156.319824,119.197754 L156.319824,131 L154.638184,131 L154.638184,116.295898 L156.381348,116.295898 L165.199707,128.118652 L165.199707,116.295898 L166.86084,116.295898 L166.86084,131 L165.138184,131 Z M173.013184,117.916016 L173.013184,122.745605 L180.426758,122.745605 L180.426758,124.365723 L173.013184,124.365723 L173.013184,129.400391 L181.585449,129.400391 L181.585449,131 L171.331543,131 L171.331543,116.295898 L181.308594,116.295898 L181.308594,117.916016 L173.013184,117.916016 Z M200.539795,117.264893 C201.68482,117.910892 202.590573,118.792719 203.25708,119.9104 C203.923587,121.028082 204.256836,122.273919 204.256836,123.647949 C204.256836,125.02198 203.923587,126.269526 203.25708,127.390625 C202.590573,128.511724 201.676275,129.393551 200.51416,130.036133 C199.352045,130.678714 198.060066,131 196.638184,131 L190.752441,131 L190.752441,116.295898 L196.699707,116.295898 C198.114753,116.295898 199.39477,116.618893 200.539795,117.264893 L200.539795,117.264893 Z M192.434082,129.400391 L196.720215,129.400391 C197.800298,129.400391 198.784664,129.15259 199.67334,128.656982 C200.562016,128.161374 201.264402,127.476079 201.780518,126.601074 C202.296633,125.72607 202.554688,124.748541 202.554688,123.668457 C202.554688,122.588374 202.291507,121.612553 201.765137,120.740967 C201.238767,119.86938 200.527837,119.180667 199.632324,118.674805 C198.736812,118.168943 197.745611,117.916016 196.658691,117.916016 L192.434082,117.916016 L192.434082,129.400391 Z M207.3125,131 L207.3125,116.295898 L208.994141,116.295898 L208.994141,131 L207.3125,131 Z M225.185059,123.822266 L225.185059,129.154297 C224.439938,129.74219 223.585454,130.210447 222.621582,130.559082 C221.65771,130.907717 220.690435,131.082031 219.719727,131.082031 C218.318352,131.082031 217.034918,130.750492 215.869385,130.087402 C214.703852,129.424313 213.777591,128.525396 213.090576,127.390625 C212.403561,126.255854 212.060059,125.008308 212.060059,123.647949 C212.060059,122.287591 212.403561,121.045172 213.090576,119.920654 C213.777591,118.796137 214.715814,117.904056 215.905273,117.244385 C217.094733,116.584713 218.396966,116.254883 219.812012,116.254883 C220.8169,116.254883 221.79272,116.434324 222.739502,116.793213 C223.686284,117.152101 224.515133,117.645993 225.226074,118.274902 L224.262207,119.536133 C223.660642,119.002927 222.970219,118.585939 222.190918,118.285156 C221.411617,117.984373 220.618656,117.833984 219.812012,117.833984 C218.704584,117.833984 217.689458,118.092038 216.766602,118.608154 C215.843745,119.12427 215.112307,119.828365 214.572266,120.720459 C214.032224,121.612553 213.762207,122.588374 213.762207,123.647949 C213.762207,124.714361 214.035642,125.695308 214.58252,126.59082 C215.129397,127.486333 215.864253,128.193845 216.787109,128.713379 C217.709966,129.232913 218.725092,129.492676 219.83252,129.492676 C220.488773,129.492676 221.153561,129.383302 221.826904,129.164551 C222.500248,128.9458 223.124021,128.641604 223.698242,128.251953 L223.698242,123.822266 L225.185059,123.822266 Z M229.255859,131 L229.255859,116.295898 L230.9375,116.295898 L230.9375,131 L229.255859,131 Z M239.858398,117.916016 L239.858398,131 L238.176758,131 L238.176758,117.916016 L233.398438,117.916016 L233.398438,116.295898 L244.66748,116.295898 L244.66748,117.916016 L239.858398,117.916016 Z M248.379395,127.288086 L246.73877,131 L244.95459,131 L251.547852,116.295898 L253.291016,116.295898 L259.86377,131 L258.038574,131 L256.397949,127.288086 L248.379395,127.288086 Z M252.368164,118.213379 L249.097168,125.667969 L255.69043,125.667969 L252.368164,118.213379 Z M270.302246,129.400391 L270.302246,131 L262.170898,131 L262.170898,116.295898 L263.852539,116.295898 L263.852539,129.400391 L270.302246,129.400391 Z M286.90332,129.400391 L286.90332,131 L278.771973,131 L278.771973,116.295898 L280.453613,116.295898 L280.453613,129.400391 L286.90332,129.400391 Z M289.620605,131 L289.620605,116.295898 L291.302246,116.295898 L291.302246,131 L289.620605,131 Z M305.432129,117.275146 C306.272953,117.927982 306.693359,118.828608 306.693359,119.977051 C306.693359,120.845219 306.455813,121.569821 305.980713,122.150879 C305.505613,122.731936 304.840825,123.111327 303.986328,123.289062 C305.05274,123.44629 305.87988,123.853024 306.467773,124.509277 C307.055667,125.165531 307.349609,125.999507 307.349609,127.01123 C307.349609,128.255377 306.879643,129.231198 305.939697,129.938721 C304.999751,130.646244 303.702645,131 302.04834,131 L295.752441,131 L295.752441,116.295898 L301.945801,116.295898 C303.429207,116.295898 304.591304,116.622311 305.432129,117.275146 L305.432129,117.275146 Z M297.434082,122.643066 L301.86377,122.643066 C302.854985,122.643066 303.624021,122.436281 304.170898,122.022705 C304.717776,121.609129 304.991211,121.016117 304.991211,120.243652 C304.991211,119.498531 304.717776,118.924318 304.170898,118.520996 C303.624021,118.117674 302.854985,117.916016 301.86377,117.916016 L297.434082,117.916016 L297.434082,122.643066 Z M297.434082,129.400391 L301.86377,129.400391 C303.066901,129.400391 303.998288,129.173098 304.657959,128.718506 C305.31763,128.263914 305.647461,127.616215 305.647461,126.775391 C305.647461,125.975582 305.314212,125.353518 304.647705,124.90918 C303.981198,124.464842 303.053229,124.242676 301.86377,124.242676 L297.434082,124.242676 L297.434082,129.400391 Z M317.357422,126.313965 C316.940428,126.341309 316.612306,126.35498 316.373047,126.35498 L312.466309,126.35498 L312.466309,131 L310.784668,131 L310.784668,116.295898 L316.373047,116.295898 C318.205087,116.295898 319.628657,116.726558 320.643799,117.587891 C321.658941,118.449223 322.166504,119.666008 322.166504,121.238281 C322.166504,122.441412 321.882815,123.447994 321.31543,124.258057 C320.748044,125.068119 319.934576,125.650877 318.875,126.006348 L322.310059,131 L320.402832,131 L317.357422,126.313965 Z M319.4646,123.863281 C320.185795,123.275388 320.546387,122.414068 320.546387,121.279297 C320.546387,120.171869 320.185795,119.334475 319.4646,118.76709 C318.743405,118.199704 317.712897,117.916016 316.373047,117.916016 L312.466309,117.916016 L312.466309,124.745117 L316.373047,124.745117 C317.712897,124.745117 318.743405,124.451175 319.4646,123.863281 L319.4646,123.863281 Z M327.242188,127.288086 L325.601562,131 L323.817383,131 L330.410645,116.295898 L332.153809,116.295898 L338.726562,131 L336.901367,131 L335.260742,127.288086 L327.242188,127.288086 Z M331.230957,118.213379 L327.959961,125.667969 L334.553223,125.667969 L331.230957,118.213379 Z M347.606445,126.313965 C347.189451,126.341309 346.861329,126.35498 346.62207,126.35498 L342.715332,126.35498 L342.715332,131 L341.033691,131 L341.033691,116.295898 L346.62207,116.295898 C348.454111,116.295898 349.87768,116.726558 350.892822,117.587891 C351.907964,118.449223 352.415527,119.666008 352.415527,121.238281 C352.415527,122.441412 352.131839,123.447994 351.564453,124.258057 C350.997067,125.068119 350.183599,125.650877 349.124023,126.006348 L352.559082,131 L350.651855,131 L347.606445,126.313965 Z M349.713623,123.863281 C350.434818,123.275388 350.79541,122.414068 350.79541,121.279297 C350.79541,120.171869 350.434818,119.334475 349.713623,118.76709 C348.992428,118.199704 347.961921,117.916016 346.62207,117.916016 L342.715332,117.916016 L342.715332,124.745117 L346.62207,124.745117 C347.961921,124.745117 348.992428,124.451175 349.713623,123.863281 L349.713623,123.863281 Z M361.418457,131 L359.757324,131 L359.757324,126.026855 L354.066406,116.295898 L355.80957,116.295898 L360.577637,123.96582 L365.28418,116.295898 L367.006836,116.295898 L361.418457,125.955078 L361.418457,131 Z" id="AFRICAN-ONLINE-DIGIT"></path>
                    <g id="Logo">
                        <path d="M0.924,90.129 L49.125,2.262 L97.452,90.129 L0.924,90.129" id="Fill-1"></path>
                        <path d="M183.176,46.197 C183.176,71.677 162.462,92.389 136.983,92.389 C111.5,92.389 90.788,71.677 90.788,46.197 C90.788,20.715 111.5,0.004 136.983,0.004 C162.462,0.004 183.176,20.715 183.176,46.197" id="Fill-2"></path>
                        <path d="M281.975,46.197 C281.975,70.424 262.27,90.129 238.043,90.129 L194.109,90.129 L194.109,2.262 L238.043,2.262 C262.27,2.262 281.975,21.971 281.975,46.197" id="Fill-3"></path>
                        <path d="M345.277,46.197 L345.277,2.262 L292.285,2.262 L292.285,90.129 L367.998,90.129 L367.998,46.197 L345.277,46.197" id="Fill-4"></path>
                    </g>
                </g>
            </g>
        </g>
    </g>
</svg>
