<?xml version="1.0" encoding="UTF-8" standalone="no"?>
<svg width="135px" height="15px" viewBox="0 0 135 15" version="1.1" xmlns="http://www.w3.org/2000/svg" xmlns:xlink="http://www.w3.org/1999/xlink">
    <!-- Generator: Sketch 3.8.3 (29802) - http://www.bohemiancoding.com/sketch -->
    <title>Group 18</title>
    <desc>Created with Sketch.</desc>
    <defs>
        <rect id="path-1" x="0" y="2" width="14" height="14"></rect>
        <mask id="mask-2" maskContentUnits="userSpaceOnUse" maskUnits="objectBoundingBox" x="0" y="0" width="14" height="14" fill="white">
            <use xlink:href="#path-1"></use>
        </mask>
        <rect id="path-3" x="-4.35207426e-14" y="3.56159546e-13" width="9.40617841" height="9.2784493"></rect>
        <mask id="mask-4" maskContentUnits="userSpaceOnUse" maskUnits="objectBoundingBox" x="0" y="0" width="9.40617841" height="9.2784493" fill="white">
            <use xlink:href="#path-3"></use>
        </mask>
        <rect id="path-5" x="-3.21964677e-14" y="-2.66453526e-13" width="9.40617841" height="9.2784493"></rect>
        <mask id="mask-6" maskContentUnits="userSpaceOnUse" maskUnits="objectBoundingBox" x="0" y="0" width="9.40617841" height="9.2784493" fill="white">
            <use xlink:href="#path-5"></use>
        </mask>
    </defs>
    <g id="Desktop" stroke="none" stroke-width="1" fill="none" fill-rule="evenodd">
        <g id="Group-18" transform="translate(0.000000, -1.000000)">
            <g id="Group-10" transform="translate(122.016602, 4.000000)" stroke-linecap="square" stroke="#FFFFFF">
                <g id="ArrowDown" transform="translate(9.500000, 4.500000) scale(-1, 1) rotate(-270.000000) translate(-9.500000, -4.500000) translate(5.500000, 2.500000)">
                    <path d="M8,-8.8817842e-16 L4,4" id="Line"></path>
                    <path d="M4,-8.8817842e-16 L-7.77156117e-16,4" id="Line-Copy" transform="translate(2.000000, 2.000000) scale(-1, 1) translate(-2.000000, -2.000000) "></path>
                </g>
                <path d="M10.5,4.5 L0.450124383,4.5" id="Line"></path>
            </g>
            <g id="Group-11" transform="translate(34.000000, 3.000000)">
                <path d="M2.04255319,4.08510638 C3.17062417,4.08510638 4.08510638,3.17062417 4.08510638,2.04255319 C4.08510638,0.914482213 3.17062417,0 2.04255319,0 C0.914482213,0 0,0.914482213 0,2.04255319 C0,3.17062417 0.914482213,4.08510638 2.04255319,4.08510638 Z" id="Oval-10-Copy-2" fill="#FFFFFF"></path>
                <path d="M3.44680851,3.70212766 L8.28522414,8.54054328" id="Line" stroke="#FFFFFF" stroke-linecap="square"></path>
                <path d="M3.70212766,3.70212766 L8.54054328,8.54054328" id="Line" stroke="#FFFFFF" stroke-linecap="square" transform="translate(6.121335, 6.121335) scale(1, -1) translate(-6.121335, -6.121335) "></path>
                <path d="M9.95744681,4.08510638 C11.0855178,4.08510638 12,3.17062417 12,2.04255319 C12,0.914482213 11.0855178,0 9.95744681,0 C8.82937583,0 7.91489362,0.914482213 7.91489362,2.04255319 C7.91489362,3.17062417 8.82937583,4.08510638 9.95744681,4.08510638 Z" id="Oval-10-Copy-3" fill="#FFFFFF"></path>
                <path d="M9.95744681,12 C11.0855178,12 12,11.0855178 12,9.95744681 C12,8.82937583 11.0855178,7.91489362 9.95744681,7.91489362 C8.82937583,7.91489362 7.91489362,8.82937583 7.91489362,9.95744681 C7.91489362,11.0855178 8.82937583,12 9.95744681,12 Z" id="Oval-10-Copy-4" fill="#FFFFFF"></path>
                <path d="M2.04255319,12 C3.17062417,12 4.08510638,11.0855178 4.08510638,9.95744681 C4.08510638,8.82937583 3.17062417,7.91489362 2.04255319,7.91489362 C0.914482213,7.91489362 0,8.82937583 0,9.95744681 C0,11.0855178 0.914482213,12 2.04255319,12 Z" id="Oval-10-Copy-5" fill="#FFFFFF"></path>
                <path d="M4.21276596,2.17021277 L7.78723404,2.17021277" id="Line" stroke="#FFFFFF" stroke-linecap="square"></path>
                <path d="M4.21276596,10.0851064 L7.78723404,10.0851064" id="Line-Copy-4" stroke="#FFFFFF" stroke-linecap="square"></path>
                <path d="M2.04255319,7.91489362 L2.04255319,4.34042553" id="Line-Copy-5" stroke="#FFFFFF" stroke-linecap="square"></path>
                <path d="M9.95744681,7.91489362 L9.95744681,4.34042553" id="Line-Copy-6" stroke="#FFFFFF" stroke-linecap="square"></path>
            </g>
            <g id="Group" transform="translate(50.000000, 3.000000)" fill="#FFFFFF">
                <path d="M2.23255814,4.46511628 C3.46556595,4.46511628 4.46511628,3.46556595 4.46511628,2.23255814 C4.46511628,0.999550326 3.46556595,0 2.23255814,0 C0.999550326,0 0,0.999550326 0,2.23255814 C0,3.46556595 0.999550326,4.46511628 2.23255814,4.46511628 Z" id="Oval-10-Copy-2"></path>
                <path d="M9.76744186,4.74418605 C11.0004497,4.74418605 12,3.74463572 12,2.51162791 C12,1.27862009 11.0004497,0.279069767 9.76744186,0.279069767 C8.53443405,0.279069767 7.53488372,1.27862009 7.53488372,2.51162791 C7.53488372,3.74463572 8.53443405,4.74418605 9.76744186,4.74418605 Z" id="Oval-10-Copy-3"></path>
                <path d="M9.48837209,12 C10.7213799,12 11.7209302,11.0004497 11.7209302,9.76744186 C11.7209302,8.53443405 10.7213799,7.53488372 9.48837209,7.53488372 C8.25536428,7.53488372 7.25581395,8.53443405 7.25581395,9.76744186 C7.25581395,11.0004497 8.25536428,12 9.48837209,12 Z" id="Oval-10-Copy-4"></path>
                <path d="M2.23255814,12 C3.46556595,12 4.46511628,11.0004497 4.46511628,9.76744186 C4.46511628,8.53443405 3.46556595,7.53488372 2.23255814,7.53488372 C0.999550326,7.53488372 0,8.53443405 0,9.76744186 C0,11.0004497 0.999550326,12 2.23255814,12 Z" id="Oval-10-Copy-5"></path>
            </g>
            <g id="Group-11" transform="translate(66.000000, 3.000000)">
                <path d="M2.04255319,4.08510638 C3.17062417,4.08510638 4.08510638,3.17062417 4.08510638,2.04255319 C4.08510638,0.914482213 3.17062417,0 2.04255319,0 C0.914482213,0 0,0.914482213 0,2.04255319 C0,3.17062417 0.914482213,4.08510638 2.04255319,4.08510638 Z" id="Oval-10-Copy-2" fill="#FFFFFF"></path>
                <path d="M9.95744681,4.08510638 C11.0855178,4.08510638 12,3.17062417 12,2.04255319 C12,0.914482213 11.0855178,0 9.95744681,0 C8.82937583,0 7.91489362,0.914482213 7.91489362,2.04255319 C7.91489362,3.17062417 8.82937583,4.08510638 9.95744681,4.08510638 Z" id="Oval-10-Copy-3" fill="#FFFFFF"></path>
                <path d="M9.95744681,12 C11.0855178,12 12,11.0855178 12,9.95744681 C12,8.82937583 11.0855178,7.91489362 9.95744681,7.91489362 C8.82937583,7.91489362 7.91489362,8.82937583 7.91489362,9.95744681 C7.91489362,11.0855178 8.82937583,12 9.95744681,12 Z" id="Oval-10-Copy-4" fill="#FFFFFF"></path>
                <path d="M2.04255319,12 C3.17062417,12 4.08510638,11.0855178 4.08510638,9.95744681 C4.08510638,8.82937583 3.17062417,7.91489362 2.04255319,7.91489362 C0.914482213,7.91489362 0,8.82937583 0,9.95744681 C0,11.0855178 0.914482213,12 2.04255319,12 Z" id="Oval-10-Copy-5" fill="#FFFFFF"></path>
                <path d="M4.21276596,2.17021277 L7.78723404,2.17021277" id="Line" stroke="#FFFFFF" stroke-linecap="square"></path>
                <path d="M4.21276596,10.0851064 L7.78723404,10.0851064" id="Line-Copy-4" stroke="#FFFFFF" stroke-linecap="square"></path>
                <path d="M2.04255319,7.91489362 L2.04255319,4.34042553" id="Line-Copy-5" stroke="#FFFFFF" stroke-linecap="square"></path>
                <path d="M9.95744681,7.91489362 L9.95744681,4.34042553" id="Line-Copy-6" stroke="#FFFFFF" stroke-linecap="square"></path>
            </g>
            <path d="M21.9311523,5.01074219 C22.4165063,4.57324 23.0670532,4.35449219 23.8828125,4.35449219 C24.6757852,4.35449219 25.314939,4.54817515 25.800293,4.93554688 C26.285647,5.3229186 26.5283203,5.88118125 26.5283203,6.61035156 C26.5283203,6.97493672 26.4747727,7.29166532 26.3676758,7.56054688 C26.2605789,7.82942843 26.1318367,8.05729073 25.9814453,8.24414062 C25.8310539,8.43099052 25.6259779,8.65201695 25.3662109,8.90722656 C25.0016258,9.25358246 24.7304696,9.56575382 24.5527344,9.84375 C24.3749991,10.1217462 24.2861328,10.47949 24.2861328,10.9169922 L23.4179688,10.9169922 C23.4179688,10.5341778 23.4692378,10.2060561 23.5717773,9.93261719 C23.6743169,9.65917832 23.8007805,9.43131602 23.9511719,9.24902344 C24.1015633,9.06673086 24.2975248,8.85481892 24.5390625,8.61328125 C24.7623709,8.38997284 24.9344069,8.20312575 25.0551758,8.05273438 C25.1759446,7.902343 25.2807613,7.72005315 25.3696289,7.50585938 C25.4584965,7.2916656 25.5029297,7.04329568 25.5029297,6.76074219 C25.5029297,6.29589611 25.346844,5.94157023 25.034668,5.69775391 C24.7224919,5.45393758 24.3043646,5.33203125 23.7802734,5.33203125 C23.2561823,5.33203125 22.8403336,5.46305208 22.5327148,5.72509766 C22.2250961,5.98714324 22.0576173,6.37564847 22.0302734,6.890625 L21.1484375,6.86328125 C21.184896,6.06575122 21.4457984,5.44824437 21.9311523,5.01074219 L21.9311523,5.01074219 Z M24.3134766,12.8652344 C24.4456387,13.0065111 24.5117188,13.1796865 24.5117188,13.3847656 C24.5117188,13.5898448 24.4456387,13.7618808 24.3134766,13.9008789 C24.1813144,14.039877 24.0172536,14.109375 23.8212891,14.109375 C23.6344392,14.109375 23.4760749,14.039877 23.3461914,13.9008789 C23.2163079,13.7618808 23.1513672,13.5898448 23.1513672,13.3847656 C23.1513672,13.1796865 23.2163079,13.0065111 23.3461914,12.8652344 C23.4760749,12.7239576 23.6344392,12.6533203 23.8212891,12.6533203 C24.0172536,12.6533203 24.1813144,12.7239576 24.3134766,12.8652344 L24.3134766,12.8652344 Z" id="?" fill="#FFFFFF"></path>
            <use id="Rectangle-149" stroke="#FFFFFF" mask="url(#mask-2)" stroke-width="2" xlink:href="#path-1"></use>
            <g id="Group-7" transform="translate(84.000000, 0.000000)">
                <circle id="Oval-10-Copy" fill="#FFFFFF" cx="3.85789474" cy="10.9" r="1.65789474"></circle>
                <ellipse id="Oval-10" fill="#FFFFFF" cx="8.65789474" cy="7.45789474" rx="1.65789474" ry="1.65789474"></ellipse>
                <path d="M5.35,9.84999998 L7.29999998,8.5" id="Line" stroke="#FFFFFF" stroke-linecap="square"></path>
                <g id="Group-9" transform="translate(5.200000, 11.200000)">
                    <path d="M3.45789474,4.51578947 C4.37352472,4.51578947 5.11578947,3.77352472 5.11578947,2.85789474 C5.11578947,1.94226476 4.37352472,1.2 3.45789474,1.2 C2.54226476,1.2 1.8,1.94226476 1.8,2.85789474 C1.8,3.77352472 2.54226476,4.51578947 3.45789474,4.51578947 Z" id="Oval-10-Copy-2" fill="#FFFFFF"></path>
                    <path d="M0.0789473712,1.27894735 L1.87894735,0.0789473712" id="Line" stroke="#FFFFFF" stroke-linecap="square" transform="translate(1.200000, 0.900000) scale(1, -1) translate(-1.200000, -0.900000) "></path>
                </g>
                <g id="Group-9-Copy" transform="translate(3.800000, 3.700000) scale(-1, -1) translate(-3.800000, -3.700000) translate(0.300000, 0.700000)">
                    <path d="M3.9,5.7 C5.2254834,5.7 6.3,4.6254834 6.3,3.3 C6.3,1.9745166 5.2254834,0.9 3.9,0.9 C2.5745166,0.9 1.5,1.9745166 1.5,3.3 C1.5,4.6254834 2.5745166,5.7 3.9,5.7 Z" id="Oval-10-Copy-2" fill="#FFFFFF"></path>
                    <path d="M0.0789473712,1.27894735 L1.87894735,0.0789473712" id="Line" stroke="#FFFFFF" stroke-linecap="square" transform="translate(1.200000, 0.900000) scale(1, -1) translate(-1.200000, -0.900000) "></path>
                </g>
            </g>
            <g id="Group-11" transform="translate(100.000000, 0.890625)">
                <g id="Group" transform="translate(10.894213, 6.667616) rotate(24.000000) translate(-10.894213, -6.667616) translate(5.894213, 1.667616)">
                    <use id="Rectangle-302-Copy" stroke="#FFFFFF" mask="url(#mask-4)" stroke-width="2" fill="#3EB9FD" xlink:href="#path-3"></use>
                    <ellipse id="Oval-215-Copy-3" fill="#FFFFFF" cx="2.45580028" cy="2.44478915" rx="0.81087745" ry="0.799866319"></ellipse>
                    <ellipse id="Oval-215-Copy-4" fill="#FFFFFF" cx="6.56810734" cy="2.44478915" rx="0.81087745" ry="0.799866319"></ellipse>
                    <ellipse id="Oval-215-Copy-5" fill="#FFFFFF" cx="6.56810734" cy="6.55709621" rx="0.81087745" ry="0.799866319"></ellipse>
                </g>
                <g id="Group-10" transform="translate(6.118499, 9.985063) rotate(4.000000) translate(-6.118499, -9.985063) translate(1.118499, 4.985063)">
                    <use id="Rectangle-302" stroke="#FFFFFF" mask="url(#mask-6)" stroke-width="2" fill="#3EB9FD" xlink:href="#path-5"></use>
                    <path d="M3.07878302,3.72936984 C3.52661827,3.72936984 3.88966047,3.37125749 3.88966047,2.92950352 C3.88966047,2.48774955 3.52661827,2.1296372 3.07878302,2.1296372 C2.63094777,2.1296372 2.26790557,2.48774955 2.26790557,2.92950352 C2.26790557,3.37125749 2.63094777,3.72936984 3.07878302,3.72936984 Z" id="Oval-215" fill="#FFFFFF"></path>
                    <ellipse id="Oval-215-Copy" fill="#FFFFFF" cx="4.74942506" cy="4.67176159" rx="0.81087745" ry="0.799866319"></ellipse>
                    <ellipse id="Oval-215-Copy-2" fill="#FFFFFF" cx="6.4200671" cy="6.41401965" rx="0.81087745" ry="0.799866319"></ellipse>
                </g>
            </g>
        </g>
    </g>
</svg>