<svg id="Layer_1" data-name="Layer 1" xmlns="http://www.w3.org/2000/svg" xmlns:xlink="http://www.w3.org/1999/xlink" viewBox="0 0 303.38 79.56"><defs><style>.cls-1{fill:#fff;}.cls-2,.cls-7{fill:#021426;}.cls-3{fill:#2f5363;}.cls-3,.cls-4,.cls-5,.cls-6,.cls-7{opacity:0.7;}.cls-3,.cls-4,.cls-5,.cls-6,.cls-7,.cls-8{isolation:isolate;}.cls-4{fill:#3eb9fd;}.cls-5{fill:#0d2431;}.cls-6{fill:#42dafc;}.cls-10,.cls-8{opacity:0.5;}.cls-8{fill:url(#linear-gradient);}.cls-9{fill:#e8f4f7;}.cls-11{fill:#939393;}</style><linearGradient id="linear-gradient" x1="149.53" y1="35.17" x2="112.61" y2="7.03" gradientTransform="matrix(1, 0, 0, -1, 0.03, 82)" gradientUnits="userSpaceOnUse"><stop offset="0.01" stop-color="#021426"/><stop offset="1" stop-color="gray" stop-opacity="0"/></linearGradient></defs><title>poweredBy</title><path class="cls-1" d="M7.89,68.47a3.86,3.86,0,0,1,1.22,3.14,3.73,3.73,0,0,1-1.25,3.11,6.11,6.11,0,0,1-3.82,1H2v3.43H0V67.45H4A6,6,0,0,1,7.89,68.47Zm-1.4,4.82a2.58,2.58,0,0,0,.59-1.84,1.9,1.9,0,0,0-.75-1.71A4.33,4.33,0,0,0,4,69.24H2v4.63H4.26a3,3,0,0,0,2.19-.58h0Z" transform="translate(0.03 0)"/><path class="cls-1" d="M21.22,77.52a6.41,6.41,0,0,1-8.76,0,6.13,6.13,0,0,1,0-8.63,6.41,6.41,0,0,1,8.76,0A6.14,6.14,0,0,1,21.22,77.52Zm-1.45-7.31a4.1,4.1,0,0,0-5.8-.07l-0.07.07a4.36,4.36,0,0,0,0,6,4.1,4.1,0,0,0,5.8.07l0.07-.07a4.37,4.37,0,0,0,0-6h0Z" transform="translate(0.03 0)"/><path class="cls-1" d="M29,75.87l2.61-8.41h1.77L36,75.87l2.94-8.41h2.12L37,79.15H35l-2.46-8H32.45l-2.46,8H28L23.91,67.46H26Z" transform="translate(0.03 0)"/><path class="cls-1" d="M51.09,67.45v1.86H44.85V72.4h5.6v1.76h-5.6v3.13h6.44v1.86H42.88V67.45h8.21Z" transform="translate(0.03 0)"/><path class="cls-1" d="M63.15,71.24a3.39,3.39,0,0,1-2.52,3.64l3.06,4.25H61.18L58.39,75.2H55.8v3.93h-2V67.45h4.35a6.3,6.3,0,0,1,3.83.9A3.45,3.45,0,0,1,63.15,71.24ZM60.53,72.9a2.08,2.08,0,0,0,.6-1.66,1.78,1.78,0,0,0-.62-1.57,4.12,4.12,0,0,0-2.21-.43H55.79v4.18h2.46a3.62,3.62,0,0,0,2.27-.55v0Z" transform="translate(0.03 0)"/><path class="cls-1" d="M74.2,67.45v1.86H68V72.4h5.6v1.76H68v3.13H74.4v1.86H66V67.45H74.2Z" transform="translate(0.03 0)"/><path class="cls-1" d="M85.77,69a5.45,5.45,0,0,1,1.69,4.26,5.73,5.73,0,0,1-1.64,4.31,7,7,0,0,1-5,1.59H76.94V67.45h4A7,7,0,0,1,85.77,69Zm-0.3,4.31q0-4-4.6-4h-2v8h2.19a4.72,4.72,0,0,0,3.25-1,3.8,3.8,0,0,0,1.14-3h0Z" transform="translate(0.03 0)"/><path class="cls-1" d="M99.69,79.13H94.57V67.45h4.55a6.57,6.57,0,0,1,2,.28,2.81,2.81,0,0,1,1.28.77,3,3,0,0,1,.8,2,2.41,2.41,0,0,1-.87,2,3.82,3.82,0,0,1-.43.29l-0.42.19a3.06,3.06,0,0,1,1.73,1,2.72,2.72,0,0,1,.64,1.85A3.14,3.14,0,0,1,103,78,4.4,4.4,0,0,1,99.69,79.13Zm-3.14-6.84h2.51q2.14,0,2.14-1.45a1.37,1.37,0,0,0-.52-1.2,2.8,2.8,0,0,0-1.6-.37H96.56v3Zm0,5h3.09a3.29,3.29,0,0,0,1.66-.34,1.38,1.38,0,0,0,.58-1.3q0-1.56-2.49-1.56H96.55v3.19h0Z" transform="translate(0.03 0)"/><path class="cls-1" d="M110.65,79.13h-2V74.52l-4.35-7.07h2.15l3.19,5.32,3.19-5.32H115l-4.35,7.07v4.61h0Z" transform="translate(0.03 0)"/><path class="cls-2" d="M191.38,45.38L174.13,62.63,159.55,77.21a8,8,0,0,1-11.23,0l-7.77-7.77-24.1-24.06a7.94,7.94,0,0,1,0-11.23h0l23.38-23.38,3-3,4-4,1.44-1.44A7.94,7.94,0,0,1,154.84.06h0a7.91,7.91,0,0,1,4.65,2.27l1.32,1.32,14.66,14.66,15.84,15.84a7.94,7.94,0,0,1,.07,11.23h0Z" transform="translate(0.03 0)"/><path class="cls-3" d="M132.45,61.37l15.84,15.84a7.94,7.94,0,0,0,11.23,0h0L168.77,68,152.93,52.12a7.94,7.94,0,0,0-11.23,0h0Z" transform="translate(0.03 0)"/><path class="cls-4" d="M158.29,46.79l15.84,15.84,17.25-17.25a7.94,7.94,0,0,0,0-11.23h0L175.54,18.3,158.29,35.55a7.94,7.94,0,0,0,0,11.23h0Z" transform="translate(0.03 0)"/><path class="cls-5" d="M167.68,10.67L159,19.09a7.64,7.64,0,0,1-1.09.88,7.93,7.93,0,0,1-10.14-1l-7.9-8.14-0.11-.11,3.09-3,4-3.9,1.57-1.52A7.93,7.93,0,0,1,154.86.06h0a7.91,7.91,0,0,1,4.78,2.36l1.19,1.23Z" transform="translate(0.03 0)"/><path class="cls-6" d="M167,43l-6.25,6.25-20.2,20.2L116.45,45.38a7.94,7.94,0,0,1,0-11.23h0l23.38-23.38-0.11-.11,3.09-3,13.27,13.21,8.44,8.44L167,31.79A7.91,7.91,0,0,1,167,43h0Z" transform="translate(0.03 0)"/><path class="cls-7" d="M116.45,45.38l11.5,11.5,16-16a7.94,7.94,0,0,0,0-11.23h0l-11.5-11.48-16,16A7.94,7.94,0,0,0,116.45,45.38Z" transform="translate(0.03 0)"/><polygon class="cls-8" points="139.21 28.83 119.28 48.17 146.32 75.19 168.83 54.37 172.03 40.94 167.67 28.93 155.02 22.82 139.21 28.83"/><path class="cls-9" d="M158.37,22.52V18.39h-8.52v4.09A19.58,19.58,0,0,0,154,61.2h0.31A19.58,19.58,0,0,0,158.37,22.52Zm-4,35.39h-0.31a16.31,16.31,0,0,1-.81-32.61h1.12a16.3,16.3,0,0,1-.05,32.57Z" transform="translate(0.03 0)"/><path class="cls-9" d="M161.61,42.63l5.27-.86-5.17-.85A7.73,7.73,0,0,0,155,33.69l-0.65-4-0.2-1.22-0.85,5.18a7.73,7.73,0,0,0-3,1l-5.91-4,3.46,6.17a7.58,7.58,0,0,0-1.49,3.86l-5.17.85,5.21,0.85a7.74,7.74,0,0,0,6.81,6.69L154,54.19l0.32-2L154.87,49a7.78,7.78,0,0,0,3-1l6.77,4.57-4-7.21A7.59,7.59,0,0,0,161.61,42.63ZM154,35.35h0.31a6,6,0,0,1,5.28,8.35l-2.5-4.46-0.11-.1-2.66-1.8-2.4-1.62a6.12,6.12,0,0,1,2.08-.38h0Zm0.31,12.08H154a6,6,0,0,1-6-5.95V41.43a6,6,0,0,1,.78-2.94l3.1,5.51,0.11,0.1,2.37,1.61,2,1.32a5.82,5.82,0,0,1-2,.39h0Zm7.8,2.5-7.8-5.26-1.83-1.24-5.68-10.12,7.51,5.07,2.12,1.43Z" transform="translate(0.03 0)"/><path class="cls-9" d="M155.65,41.4a1.33,1.33,0,1,1-1.33-1.34A1.33,1.33,0,0,1,155.65,41.4Z" transform="translate(0.03 0)"/><g class="cls-10"><path class="cls-11" d="M154.32,40.06v2.67A1.33,1.33,0,0,1,154.32,40.06Z" transform="translate(0.03 0)"/><path class="cls-11" d="M154,35.34a6.12,6.12,0,0,0-2.09.38l2.4,1.62v1l-7.51-5.07,5.68,10.12,1.83,1.24v1L152,44l-0.11-.1-3.1-5.51A6,6,0,0,0,154,47.35h0.36v4.77l-0.32,2L153.16,49a7.74,7.74,0,0,1-6.81-6.69l-5.21-.85,5.17-.85a7.58,7.58,0,0,1,1.49-3.86l-3.46-6.17,5.91,4a7.73,7.73,0,0,1,3-1l0.85-5.18,0.2,1.22v5.67Z" transform="translate(0.03 0)"/><path class="cls-11" d="M137.7,41.61A16.33,16.33,0,0,0,154,57.87h0.31v3.28H154a19.58,19.58,0,0,1-4.17-38.72V18.34h4.47v6.92H154A16.33,16.33,0,0,0,137.7,41.61Z" transform="translate(0.03 0)"/></g><path class="cls-1" d="M215,58.32A10.62,10.62,0,0,1,225.6,68.94V79.56h-4.23V68.94a6.11,6.11,0,0,0-1.86-4.49A6.22,6.22,0,0,0,215,62.59a6.34,6.34,0,0,0-6.35,6.35V79.56h-4.27V68.94a6.37,6.37,0,0,0-12.74,0V79.56H187.4V68.94A10.62,10.62,0,0,1,198,58.32a10.1,10.1,0,0,1,8.5,4.27A10.06,10.06,0,0,1,215,58.32Z" transform="translate(0.03 0)"/><path class="cls-1" d="M240.36,58.32A10.68,10.68,0,0,1,251,68.94a10.62,10.62,0,0,1-10.62,10.62H229.74V47.7H234V60.44A10.4,10.4,0,0,1,240.36,58.32Zm0,17A6.35,6.35,0,1,0,234,68.94v6.38h6.38Z" transform="translate(0.03 0)"/><path class="cls-1" d="M259.18,54.06a2.91,2.91,0,0,1-4.17,0,2.86,2.86,0,0,1-.88-2.09,2.89,2.89,0,0,1,.88-2.12,3,3,0,0,1,4.17,0,2.89,2.89,0,0,1,.88,2.12A2.85,2.85,0,0,1,259.18,54.06ZM255,58.32V79.56h4.23V58.32H255Z" transform="translate(0.03 0)"/><path class="cls-1" d="M263.91,79.56V68.94a10.62,10.62,0,0,1,10.62-10.62h4.23v4.27h-4.23a6.4,6.4,0,0,0-6.38,6.35V79.56h-4.24Z" transform="translate(0.03 0)"/><path class="cls-1" d="M292.73,58.32a10.68,10.68,0,0,1,10.62,10.62V79.56H292.73a10.57,10.57,0,0,1-10.62-10.62A10.62,10.62,0,0,1,292.73,58.32Zm6.35,10.62a6.33,6.33,0,1,0-6.35,6.38h6.35V68.94Z" transform="translate(0.03 0)"/></svg>