<?xml version="1.0" encoding="UTF-8" standalone="no"?>
<svg width="20px" height="25px" viewBox="0 0 20 25" version="1.1" xmlns="http://www.w3.org/2000/svg" xmlns:xlink="http://www.w3.org/1999/xlink">
    <!-- Generator: Sketch 3.8.3 (29802) - http://www.bohemiancoding.com/sketch -->
    <title>projectExpert</title>
    <desc>Created with Sketch.</desc>
    <defs></defs>
    <g id="Desktop" stroke="none" stroke-width="1" fill="none" fill-rule="evenodd">
        <g id="Single-Location---Conversations" transform="translate(-324.000000, -280.000000)" fill="#FFFFFF">
            <g id="Group-4" transform="translate(199.000000, 280.000000)">
                <g id="projectExpert" transform="translate(125.000000, 0.000000)">
                    <path d="M8.8941165,15.0267767 L6.57780583,12.710466 L7.39528155,11.8902718 L8.8941165,13.3861942 L12.7150874,9.5683301 L13.5323689,10.3914369 L8.8941165,15.0267767 Z M10.0550874,3.72561165 L3.04285437,6.84192233 L3.04285437,11.5178447 C3.04285437,13.4124078 3.61761165,15.2578447 4.5995534,16.8174563 C4.70926214,16.9790097 4.81916505,17.1524078 4.93450485,17.3083301 C6.19664078,19.0527961 7.99023301,20.3611456 10.0550874,20.8665825 C14.0754757,19.8873592 17.0673204,15.8411456 17.0673204,11.5178447 L17.0673204,6.84192233 L10.0550874,3.72561165 Z" id="Fill-6"></path>
                    <path d="M18.362699,11.3421165 C18.362699,16.4654175 14.8176505,21.257068 10.053767,22.4197864 C7.60794175,21.8193981 5.48464078,20.2687184 3.98930097,18.2007573 C3.85085437,18.017068 3.72133981,17.8129903 3.59182524,17.6197864 C2.42852427,15.7733786 1.74561165,13.5850291 1.74561165,11.3421165 L1.74561165,5.80250485 L10.053767,2.11027184 L18.362699,5.80250485 L18.362699,11.3421165 Z M10.053767,0.177067961 L0.163669903,4.57260194 L0.163669903,11.1663883 C0.163669903,13.8364854 0.977650485,16.4409515 2.36133981,18.6392039 C2.51590291,18.8698835 2.6698835,19.1124078 2.83512621,19.3308544 C4.61493204,21.7924078 7.14192233,23.6392039 10.053767,24.3531845 C15.724835,22.9689126 19.9444466,17.2650291 19.9444466,11.1663883 L19.9444466,4.57260194 L10.053767,0.177067961 Z" id="Fill-8"></path>
                </g>
            </g>
        </g>
    </g>
</svg>