<?xml version="1.0" encoding="UTF-8" standalone="no"?>
<svg width="20px" height="25px" viewBox="0 0 20 25" version="1.1" xmlns="http://www.w3.org/2000/svg" xmlns:xlink="http://www.w3.org/1999/xlink">
    <!-- Generator: Sketch 3.8.3 (29802) - http://www.bohemiancoding.com/sketch -->
    <title>projectPerson</title>
    <desc>Created with Sketch.</desc>
    <defs>
        <polygon id="path-1" points="19.8267857 24.1070893 19.8267857 0.0708392857 0.160767857 0.0708392857 0.160767857 24.1070893 19.8267857 24.1070893"></polygon>
    </defs>
    <g id="Desktop" stroke="none" stroke-width="1" fill="none" fill-rule="evenodd">
        <g id="Single-Location---Conversations" transform="translate(-356.000000, -280.000000)">
            <g id="Group-4" transform="translate(199.000000, 280.000000)">
                <g id="projectPerson" transform="translate(157.000000, 0.000000)">
                    <path d="M6.38726786,12.8001786 C6.38726786,11.6003571 8.793875,10.9975 9.99369643,10.9975 C11.1942321,10.9975 13.6008393,11.6003571 13.6008393,12.8001786 L13.6008393,14.0919643 L6.38726786,14.0919643 L6.38726786,12.8001786 Z M9.99369643,6.86910714 C10.8469107,6.86910714 11.5333393,7.56392857 11.5333393,8.41625 C11.5333393,9.27642857 10.8469107,9.96446429 9.99369643,9.96446429 C9.14119643,9.96446429 8.44726786,9.27642857 8.44726786,8.41625 C8.44726786,7.56392857 9.14119643,6.86910714 9.99369643,6.86910714 L9.99369643,6.86910714 Z M9.99369643,3.85125 L3.202625,6.86910714 L3.202625,11.3976786 C3.202625,12.9721429 3.61476786,14.5133929 4.332625,15.8725 C4.45101786,16.0966071 4.57691071,16.3153571 4.71155357,16.5282143 C4.81798214,16.6866071 4.92280357,16.8535714 5.03673214,17.0042857 C6.25869643,18.6944643 7.99423214,19.9616071 9.99369643,20.4530357 C12.4195893,19.8603571 14.460125,18.1164286 15.6522679,15.8725 C16.3735179,14.5160714 16.7856607,12.9764286 16.7856607,11.3976786 L16.7856607,6.86910714 L9.99369643,3.85125 Z" id="Fill-1" fill="#FFFFFF"></path>
                    <g id="Group-5" transform="translate(0.000000, 0.062857)">
                        <mask id="mask-2" fill="white">
                            <use xlink:href="#path-1"></use>
                        </mask>
                        <g id="Clip-4"></g>
                        <path d="M18.2546964,11.1711964 C18.2546964,16.2649464 14.7302321,21.0286964 9.99380357,22.1849464 C7.56201786,21.5881607 5.45130357,20.046375 3.96416071,17.9903036 C3.82666071,17.8074464 3.69791071,17.6047679 3.56916071,17.4124464 C2.41273214,15.5769107 1.733625,13.4010179 1.733625,11.1711964 L1.733625,5.663875 L9.99380357,1.99298214 L18.2546964,5.663875 L18.2546964,11.1711964 Z M9.99380357,0.0708392857 L0.160767857,4.44101786 L0.160767857,10.9965536 C0.160767857,13.6510179 0.970053571,16.2404821 2.346125,18.4258393 C2.49933929,18.6554821 2.65255357,18.8965536 2.81683929,19.113875 C4.58648214,21.561375 7.09880357,23.3969107 9.99380357,24.1070893 C15.6320179,22.7310179 19.8268393,17.0603036 19.8268393,10.9965536 L19.8268393,4.44101786 L9.99380357,0.0708392857 Z" id="Fill-3" fill="#FFFFFF" mask="url(#mask-2)"></path>
                    </g>
                </g>
            </g>
        </g>
    </g>
</svg>