<?xml version="1.0" encoding="UTF-8" standalone="no"?>
<svg width="13px" height="13px" viewBox="0 0 13 13" version="1.1" xmlns="http://www.w3.org/2000/svg" xmlns:xlink="http://www.w3.org/1999/xlink" xmlns:sketch="http://www.bohemiancoding.com/sketch/ns">
    <!-- Generator: sketchtool 3.4.2 (385) - http://www.bohemiancoding.com/sketch -->
    <title>Search</title>
    <desc>Created with sketchtool.</desc>
    <defs></defs>
    <g id="Assets" stroke="none" stroke-width="1" fill="none" fill-rule="evenodd" sketch:type="MSPage">
        <g sketch:type="MSArtboardGroup" transform="translate(-996.000000, -1827.000000)" id="SearchBarActive" fill="#3F3F3F">
            <g sketch:type="MSLayerGroup" transform="translate(428.000000, 1798.000000)">
                <g id="Search" transform="translate(568.000000, 29.000000)" sketch:type="MSShapeGroup">
                    <g id="Capa_1">
                        <path d="M12.9869367,11.8265099 L11.4040365,10.2241158 L10.1430681,8.94761823 C10.7916448,8.02410591 11.1769002,6.89848522 11.1769002,5.6813202 C11.1769002,2.56183251 8.66979805,0.0238546798 5.58835523,0.0238546798 C2.50672263,0.0238546798 0,2.56183251 0,5.6813202 C0,8.80077586 2.50672263,11.3384015 5.58835523,11.3384015 C6.8756399,11.3384015 8.05917762,10.8913103 9.00472993,10.1483251 L11.1716496,12.341931 C11.1982506,12.3688596 11.2280779,12.3902488 11.2572092,12.4125985 L11.8326886,12.9949729 L12.9869367,11.8265099 L12.9869367,11.8265099 Z M5.58870316,10.0076946 C3.23216058,10.0075025 1.31511922,8.06659606 1.31511922,5.6814803 C1.31511922,3.29601232 3.23235036,1.35536207 5.58870316,1.35536207 C7.94508759,1.35536207 9.86219221,3.29601232 9.86219221,5.6814803 C9.86219221,6.67402709 9.52722871,7.58687685 8.96965207,8.31775862 C8.78515328,8.55909113 8.57826034,8.78172414 8.34837226,8.9790936 C7.60307056,9.61900739 6.64043796,10.0076946 5.58870316,10.0076946 L5.58870316,10.0076946 Z" id="Shape"></path>
                    </g>
                </g>
            </g>
        </g>
    </g>
</svg>
