<?xml version="1.0" encoding="UTF-8" standalone="no"?>
<svg width="99px" height="15px" viewBox="0 0 99 15" version="1.1" xmlns="http://www.w3.org/2000/svg" xmlns:xlink="http://www.w3.org/1999/xlink">
    <!-- Generator: Sketch 3.8.3 (29802) - http://www.bohemiancoding.com/sketch -->
    <title>Group 19</title>
    <desc>Created with Sketch.</desc>
    <defs></defs>
    <g id="Desktop" stroke="none" stroke-width="1" fill="none" fill-rule="evenodd">
        <g id="Group-19" transform="translate(0.151367, 0.000000)" fill="#FFFFFF">
            <path d="M3,4.5 L12,4.5 L12,3 L3,3 L3,4.5 Z M3,6.75 L12,6.75 L12,5.25 L3,5.25 L3,6.75 Z M3,9 L12,9 L12,7.5 L3,7.5 L3,9 Z M13.5,0 L1.5,0 C0.675,0 0.008,0.674 0.008,1.5 L0,15 L3,12 L13.5,12 C14.325,12 15,11.325 15,10.5 L15,1.5 C15,0.674 14.325,0 13.5,0 L13.5,0 Z" id="Fill-1"></path>
            <path d="M29.253,4.723 L23.807,8.127 L18.361,4.723 L18.361,3.362 L23.807,6.766 L29.253,3.362 L29.253,4.723 Z M29.253,2 L18.361,2 C17.613,2 17.007,2.613 17.007,3.362 L17,11.532 C17,12.28 17.613,12.892 18.361,12.892 L29.253,12.892 C30.002,12.892 30.614,12.28 30.614,11.532 L30.614,3.362 C30.614,2.613 30.002,2 29.253,2 L29.253,2 Z" id="Fill-3"></path>
            <path d="M43.7515,7.4265 L41.6215,5.2965 L40.6095,6.3085 L42.7395,8.4385 C43.6505,9.3485 43.6505,10.8295 42.7405,11.7395 C41.8295,12.6505 40.3495,12.6505 39.4385,11.7395 L37.3085,9.6095 L36.2965,10.6215 L38.4275,12.7515 C39.8965,14.2215 42.2825,14.2215 43.7515,12.7515 C45.2215,11.2815 45.2215,8.8965 43.7515,7.4265 L43.7515,7.4265 Z M35.7645,5.8295 L40.0245,10.0895 L41.0895,9.0245 L36.8295,4.7635 L35.7645,5.8295 Z M34.1145,3.1135 C35.0245,2.2035 36.5045,2.2035 37.4155,3.1135 L39.5445,5.2435 L40.5565,4.2315 L38.4275,2.1025 C36.9575,0.6325 34.5715,0.6325 33.1025,2.1025 C31.6325,3.5715 31.6325,5.9565 33.1025,7.4265 L35.2315,9.5565 L36.2435,8.5445 L34.1135,6.4145 C33.2035,5.5045 33.2035,4.0245 34.1145,3.1135 L34.1145,3.1135 Z" id="Fill-4"></path>
            <path d="M78.255,3.278 C77.767,3.495 77.242,3.641 76.693,3.705 C77.255,3.368 77.688,2.836 77.889,2.199 C77.364,2.512 76.78,2.738 76.163,2.859 C75.668,2.332 74.96,2 74.178,2 C72.674,2 71.458,3.217 71.458,4.72 C71.458,4.932 71.481,5.141 71.529,5.341 C69.268,5.23 67.264,4.148 65.922,2.501 C65.689,2.904 65.554,3.371 65.554,3.869 C65.554,4.813 66.033,5.645 66.763,6.133 C66.317,6.119 65.899,5.999 65.532,5.795 L65.532,5.829 C65.532,7.146 66.471,8.246 67.714,8.495 C67.486,8.556 67.245,8.59 66.999,8.59 C66.823,8.59 66.654,8.575 66.487,8.543 C66.832,9.625 67.836,10.41 69.026,10.431 C68.096,11.16 66.924,11.594 65.649,11.594 C65.429,11.594 65.215,11.581 65,11.557 C66.204,12.328 67.632,12.779 69.17,12.779 C74.172,12.779 76.908,8.636 76.908,5.041 C76.908,4.922 76.905,4.805 76.9,4.688 C77.43,4.302 77.892,3.824 78.255,3.278" id="Fill-5"></path>
            <path d="M56.12,5.348 L56.122,4.204 C56.122,3.606 56.181,3.288 57.035,3.288 L58.18,3.288 L58.18,1 L56.349,1 C54.148,1 53.373,2.109 53.373,3.976 L53.373,5.348 L52,5.348 L52,7.636 L53.373,7.636 L53.373,14.271 L56.117,14.271 L56.117,7.636 L57.949,7.636 L58.193,5.348 L56.12,5.348 Z" id="Fill-6"></path>
            <g id="Group-15" transform="translate(85.000000, 0.000000)">
                <path d="M5.11809284,6.33194204 C3.56270296,6.33194204 2.91671442,4.28735695 2.91671442,3.19249149 C2.91671442,2.63699511 3.04394101,2.20872531 3.30376996,1.88617902 C3.58689393,1.53317003 4.07071336,1.30380378 4.53750952,1.30380378 C5.96477685,1.30380378 6.75501525,3.22385016 6.75501525,4.54987379 C6.75501525,4.75952888 6.75501525,5.3965578 6.31509796,5.83826702 C6.01853456,6.13303849 5.53829898,6.33194204 5.11809284,6.33194204 M5.13511611,13.4270644 C3.28226688,13.4270644 2.03687982,12.5615652 2.03687982,11.274068 C2.03687982,10.4318638 2.54578618,9.82081773 3.54926353,9.45795316 C4.3520454,9.1864767 5.3895693,9.17303727 5.39942488,9.17303727 C5.57503341,9.17303727 5.66373364,9.17303727 5.8035037,9.19095651 C7.10085655,10.1137973 7.72444605,10.5985127 7.72444605,11.5213534 C7.72355008,12.6968555 6.73172025,13.4270644 5.13511611,13.4270644 M9.04778179,0.637208113 L5.82142294,0.637208113 C4.38340407,0.637208113 3.38799038,0.953482669 2.49202847,1.69354721 C1.78869837,2.30100939 1.36759627,3.18353187 1.36759627,4.05619878 C1.36759627,5.39834972 2.39168073,6.82651302 4.29022403,6.82651302 C4.4721043,6.82651302 4.67459169,6.80769782 4.85288811,6.7915705 L4.82600925,6.8551838 C4.74985249,7.03796003 4.67817554,7.21088068 4.67817554,7.47966925 C4.67817554,8.00380697 4.9308368,8.32635326 5.17453844,8.63904397 L5.20589711,8.67846629 L5.15124343,8.6829461 C4.36817272,8.73580785 2.90865076,8.83525963 1.84335204,9.49110375 C0.584525553,10.2392319 0.486865704,11.3278257 0.486865704,11.6432043 C0.486865704,12.8993429 1.65699196,14.167129 4.27230479,14.167129 C7.31230357,14.167129 8.90353192,12.4898883 8.90353192,10.8323587 C8.90353192,9.60668283 8.18497047,9.00101258 7.42250688,8.35950385 L6.77920623,7.85866114 C6.58030268,7.69380415 6.33212123,7.48952483 6.33212123,7.10963698 C6.33212123,6.73602086 6.58030268,6.48963134 6.79891739,6.27280855 L6.82131644,6.24951354 C7.51568692,5.70208081 8.3041334,5.08117921 8.3041334,3.73902826 C8.3041334,2.38970962 7.46013728,1.69175529 7.0551625,1.35666553 L8.12583698,1.35666553 C8.13927641,1.35666553 8.15181988,1.35308168 8.16257142,1.34680995 L9.08541219,0.766226629 C9.11139509,0.750099314 9.12393856,0.717844686 9.11497894,0.688277942 C9.10691528,0.657815237 9.07914046,0.637208113 9.04778179,0.637208113" id="Fill-9"></path>
                <path d="M13.5697912,6.9562483 L11.8701514,6.9562483 L11.8701514,5.26198432 C11.8701514,5.22345796 11.8387928,5.19209929 11.8002664,5.19209929 L11.0682655,5.19209929 C11.0306351,5.19209929 10.9983805,5.22345796 10.9983805,5.26198432 L10.9983805,6.9562483 L9.30770034,6.9562483 C9.26917398,6.9562483 9.23781531,6.98760697 9.23781531,7.02613333 L9.23781531,7.76709383 C9.23781531,7.8056202 9.26917398,7.83697886 9.30770034,7.83697886 L10.9983805,7.83697886 L10.9983805,9.54289035 C10.9983805,9.58052075 11.0306351,9.61187941 11.0682655,9.61187941 L11.8002664,9.61187941 C11.8387928,9.61187941 11.8701514,9.58052075 11.8701514,9.54289035 L11.8701514,7.83697886 L13.5697912,7.83697886 C13.6083175,7.83697886 13.6396762,7.8056202 13.6396762,7.76709383 L13.6396762,7.02613333 C13.6396762,6.98760697 13.6083175,6.9562483 13.5697912,6.9562483" id="Fill-10"></path>
            </g>
        </g>
    </g>
</svg>